<svg id="コンポーネント_33_1" data-name="コンポーネント 33 – 1" xmlns="http://www.w3.org/2000/svg" width="144" height="44" viewBox="0 0 144 44">
  <g id="長方形_737" data-name="長方形 737" fill="#fff" stroke="#21bddb" stroke-width="1">
    <rect width="144" height="44" rx="5" stroke="none"/>
    <rect x="0.5" y="0.5" width="143" height="43" rx="4.5" fill="none"/>
  </g>
  <g id="logo-color-LightBG" transform="translate(16.21 13.123)">
    <circle id="楕円形_35" data-name="楕円形 35" cx="3.266" cy="3.266" r="3.266" transform="translate(20.975 0)" fill="#21bddb"/>
    <path id="パス_704" data-name="パス 704" d="M71.81,73.369c-.194-.129-.762-.878-2.3-4.569-.1-.232-.181-.426-.271-.607l-.31-.762L66.221,60.9H60.8l2.711,6.531,2.711,6.531L68.725,80a.222.222,0,0,0,.3.116A.205.205,0,0,0,69.138,80l2.724-6.518A.158.158,0,0,0,71.81,73.369Z" transform="translate(-60.8 -60.732)" fill="#282828" fill-rule="evenodd"/>
    <path id="パス_705" data-name="パス 705" d="M150.5,73.369c-.194-.129-.762-.878-2.3-4.569-.1-.232-.181-.426-.271-.607l-.31-.762L144.908,60.9H139.5l2.711,6.531,2.711,6.531L147.412,80a.222.222,0,0,0,.3.116.205.205,0,0,0,.116-.116l2.724-6.518A.158.158,0,0,0,150.5,73.369Z" transform="translate(-129.342 -60.732)" fill="#282828" fill-rule="evenodd"/>
    <path id="パス_706" data-name="パス 706" d="M340.288,87.948v5.886h-1.794V87.948a2.361,2.361,0,0,0-2.543-2.582h0a2.377,2.377,0,0,0-2.543,2.582v5.886h-1.768V83.895h1.794v.8a3.706,3.706,0,0,1,2.711-1.136h0A4.131,4.131,0,0,1,340.288,87.948ZM368.969,80.5V93.834h-1.794v-1.2a4.6,4.6,0,0,1-3.511,1.536,5.3,5.3,0,0,1,0-10.6,4.6,4.6,0,0,1,3.511,1.536V80.5Zm-1.781,8.377a3.5,3.5,0,1,0-1.033,2.478A3.5,3.5,0,0,0,367.187,88.877Zm-37.419-4.969v9.939h-1.794V92.633a4.6,4.6,0,0,1-3.511,1.536,5.3,5.3,0,0,1,0-10.6,4.6,4.6,0,0,1,3.511,1.536v-1.2Zm-1.794,4.969a3.5,3.5,0,1,0-1.033,2.478A3.5,3.5,0,0,0,327.974,88.877ZM355,90.762h2a5.379,5.379,0,1,1,.258-.942h-8.584A3.5,3.5,0,0,0,353,92.246a3.573,3.573,0,0,0,1.536-.9A2.556,2.556,0,0,0,355,90.762Zm-6.376-2.633h6.854a3.506,3.506,0,0,0-6.854,0Zm-27.855-7.616h-1.949l-3.937,9.513L311.607,80.5h-.942l-3.279,9.513L303.449,80.5H301.5l5.525,13.334h.994l3.111-9.035,3.111,9.035h1.007Zm51.863,0H370.84V93.847h1.794ZM346.29,83.908h-1.743V80.5H342.74v3.395H341v1.794h1.743v8.145h1.794V85.689h1.743Zm33.405,9.939,4.118-9.939h-1.949l-3.137,7.577-3.137-7.577h-1.949l4.118,9.939h0l-1.407,3.382H378.3l1.394-3.382Z" transform="translate(-270.431 -77.802)" fill="#282828"/>
  </g>
</svg>
