<?xml version="1.0" encoding="utf-8"?>
<!-- Generator: Adobe Illustrator 27.9.1, SVG Export Plug-In . SVG Version: 6.00 Build 0)  -->
<svg version="1.1" id="レイヤー_1" xmlns="http://www.w3.org/2000/svg" xmlns:xlink="http://www.w3.org/1999/xlink" x="0px"
	 y="0px" viewBox="0 0 1417.3 1417.3" style="enable-background:new 0 0 1417.3 1417.3;" xml:space="preserve">
<style type="text/css">
	.st0{fill:url(#SVGID_1_);}
	.st1{fill:#545478;}
	.st2{fill:#373764;}
	.st3{fill:#FA8573;}
	.st4{fill:#FFBCAA;}
	.st5{fill:#4685FA;}
	.st6{fill:#FFFFFF;}
	.st7{fill:#FFDBC7;}
	.st8{fill:#FF9274;}
	.st9{fill:#969696;}
	.st10{fill:#C8C8C8;}
	.st11{fill:none;}
	.st12{fill:url(#SVGID_00000000224968142436403200000004558139805917899933_);}
	.st13{fill:url(#SVGID_00000112602268390138804970000000738663136572888991_);}
	.st14{fill:url(#SVGID_00000061435269679019687060000013651848029052876466_);}
	.st15{fill:url(#SVGID_00000111164429129632035680000017801204094343770812_);}
	.st16{enable-background:new    ;}
	.st17{fill:#EDEDEE;}
	.st18{fill:#FF8686;}
	.st19{fill:#FFD647;}
	.st20{fill:#5EDC9D;}
</style>
<linearGradient id="SVGID_1_" gradientUnits="userSpaceOnUse" x1="704.7893" y1="1285.9497" x2="704.7893" y2="735.9919">
	<stop  offset="0" style="stop-color:#F4F4F4"/>
	<stop  offset="1" style="stop-color:#CEE0FF"/>
</linearGradient>
<path class="st0" d="M1248.1,1019.1c1.3,40-8.3,79.5-31.2,111.7c-36.8,51.7-99,79.3-160.6,94.8c-153.7,38.7-309.4,64.4-468.4,59.8
	c-121.7-3.6-326.9-5.7-390.1-135c-17.6-36-9.2-67-1.1-103.7c4.5-20.6,6.5-15.2-3-32C81.1,884.6,290.9,805,393.2,780.7
	c92.2-21.9,176.9-41.7,273.2-44.2c115-3,233.3,5.9,344.2,38.1c60.8,17.7,123.8,44.1,170.2,88.4
	C1221.2,901.6,1246.2,960.8,1248.1,1019.1z"/>
<g>
	<g>
		<path class="st1" d="M1096.8,990.1h-11.2c-1.9,0-3.4-1.5-3.4-3.4v-9.2c0-1.9,1.5-5.6,3.4-5.6h11.2c1.9,0,3.4,3.7,3.4,5.6v9.2
			C1100.2,988.6,1098.6,990.1,1096.8,990.1z"/>
		<g>
			<polygon class="st2" points="1082.7,997.2 1082.9,975.6 1082.3,960.9 1099.7,959.6 1100.2,996.6 			"/>
		</g>
		<g>
			<path class="st2" d="M1082.1,978.2c0.1,4.5-1.8,13-2.7,17.3c-0.8,3.8-2.2,7.4-2.5,11.2c-0.5,5.9,2.1,12.1,7.1,15.3
				c5,3.2,12.2,2.9,16.4-1.3c4.1-4,4.8-10.4,4.7-16.1c-0.1-7.8-4.3-17.1-5-25.6l-0.9,13.2l-15,1.8L1082.1,978.2z"/>
		</g>
		<g>
			<path class="st2" d="M1093.7,997.9h-4.7c-3.2,0-5.8-2.6-5.8-5.8l0,0c0-3.2,2.6-5.8,5.8-5.8h4.7c3.2,0,5.8,2.6,5.8,5.8l0,0
				C1099.5,995.3,1096.9,997.9,1093.7,997.9z"/>
		</g>
		<path class="st3" d="M1096.1,676.5c0,0-22.4,4-25.5,6.5c-0.8,0.7-1.7,1.3-2.8,1.5c-2,0.4-3.8-0.9-5.3-2c-4-3-4.5-9.7-8.4-12.8
			l-2.3-7.6l7.9-4.4c0-0.7,0.3-11.4,0.3-11.4l27.2-7.9c0,0.7-0.5,18.5-0.5,19.2l10.8,6.1L1096.1,676.5z"/>
		<path class="st4" d="M1050.3,624.6l-0.9-15.6l9-11.6l24.1,5l9.5,16.2c0,0-1.9,7.7-2.3,13.5c-1,15.2-10.4,22.9-18.8,23.3
			c-5.2,0.2-16.3,0.2-19-15.7L1050.3,624.6z"/>
		<path class="st4" d="M1087.8,622c12.3-3.4,13.2,15.4-0.5,15.1L1087.8,622z"/>
		<g>
			<polygon class="st2" points="1033.8,967.6 1042.6,954.4 1043.6,939.3 1065.6,937.8 1065.2,962.3 			"/>
		</g>
		<g>
			<path class="st5" d="M1067.9,836.2l1.5,0.5l1.8-46.6l-40.6-1.6c2.7,28.1,5.1,73.7,7,111.5l30.6-42.7
				C1068,850.3,1067.9,843.2,1067.9,836.2z"/>
		</g>
		<g>
			<path class="st5" d="M1109.1,796.2l-47.3-5.5v46.7l7.3,2c2.5,50.2,7.7,138.7,7.7,138.7s19.1,9,29.1-0.7
				C1105.8,977.3,1109.7,852.8,1109.1,796.2z"/>
		</g>
		<g>
			<path class="st2" d="M1050.6,974.4c0.2,1.1-0.5,3.5-0.3,4.6c4.2,4.9,12.7,2.1,15.8-1.9c0.7-2.2,2.2-7.8,2-9.4L1050.6,974.4z"/>
		</g>
		<g>
			<path class="st2" d="M1032.8,964.6c1.5-1.6,7.1-6.5,7.1-6.5s2,3.5,3.4,4.3c3.4,2.1,8.1,1.5,12.1,0.8c3.7-0.7,6.3-2.5,9.6-4.3
				c0.3-0.1-0.6-2.5,0.8-1.9c0.2,0.1,1.2,2.1,1.3,2.3c1,1.9,2.1,3.8,2.5,5.9c0.5,2.1,0.2,4.4-1,6.1c-1.7,2.3-4.8,2.8-7.5,3.5
				c-13.9,3.5-22.1,11.4-35.8,15.4c-2.8,0.8-5.8,1.4-8.8,1c-3.4-0.4-8.6-2.9-8.3-7c0.2-2.9,3-6.3,5.5-7.5c3.5-1.6,3.7-2.1,7.2-3.6
				L1032.8,964.6z"/>
		</g>
		<g>
			<path class="st6" d="M1067,679.6c3.4-0.5,3.6-4.1,5.3-10.9l-10.7-2.9c-2.9,5.8-1.7,12.6-1.7,12.6S1063.7,680.1,1067,679.6z"/>
		</g>
		<g>
			<path class="st2" d="M1133.8,702.6c-0.3-10.7-1.7-17.9-6.3-22.7c-5.1-5.3-30.9-17.4-32.9-18.3l-3.1-10.2l-23,11.4l-10.6-6.2
				c0.1-0.2,0.2-0.4,0.2-0.4s-0.3,0-0.7,0.1l-0.4-0.2l-0.1,0.2c-3.1,0.3-12,1.2-16.8,2.9c-5.2,1.9-6.6,7.3-9.1,12.7
				c-1.5,3.1-2.4,6.1-3,9.1c-1.3,6.8,2.4,9.7,2.4,17.1c0,8.9-1.1,18-1.1,27c0,8.9,2.4,14.3,3.2,23.1c1.2,16.4-5.2,47.9-2.8,51.7
				c2.5,4.1,8.6,19.7,30.8,20.9c22.1,1.1,45.4-19.3,45.4-19.3s0.3,15.7,7.2,17.4l0.9-64.2c0,0,4.3-19.2,10.6-30.9
				C1128.1,716.9,1131,709.8,1133.8,702.6z"/>
		</g>
		<g>
			<path class="st2" d="M1032.4,733c5.7-6.1,11.3-10.4,12.9-19.2l-12.9-39.7c-8,15.7-13.1,28.1-25.2,38.1
				c-12.1,10-24,20.3-38.8,25.7c-1.5,0.5,3.7,13.9,4.5,18.2l50.6-13.3C1028.5,738.9,1030.9,734.7,1032.4,733z"/>
		</g>
		<path class="st4" d="M972.6,733.6c0,0-2.1,0.4-5.9,0c-3.9-0.4-8-0.8-10.9-3.4c-2-1.9-3.1-4.6-5.8-3.9c-2.7,0.7-3.2,2.4-1.7,5.1
			c1.5,2.6,4.4,4.5,6.6,6.6c-4.8,0.5-14.7,1.9-18.5,4.8c-3.8,2.9-4.2,8.9-1,12.5c2.5,2.8,6.1,3.4,9.8,3.4c10.1,0,14.6-0.4,27.3-4.2
			c1.5-0.5,6.7-3.4,6.7-3.4C978.8,744.5,978,738,972.6,733.6z"/>
		<g>
			<path class="st5" d="M1068.1,857.4l-30.6,42.7c1.8,35.4,1.7,53.6,2.3,54.7c1.2,2.1,6.3,4.3,14.6,4.6c8.4,0.3,14.5-5.9,14.5-5.9
				S1068.9,910.4,1068.1,857.4z"/>
		</g>
		<g>
			<g>
				<path class="st2" d="M1143,761c-12.8,7.6-20,3.4-25.5-5.5c-5.4-8.9-0.5-59.6-0.5-59.6s8.8-6.6,26.7,3.7
					C1143.7,699.6,1153.7,754.7,1143,761z"/>
			</g>
			<path class="st4" d="M1112.7,657.5c0,0,3.9-2.1,6.2,2.4l4.8,10.1c0.8,1.8,6.3,4.4,4.5,5.2l-4.9,6.2c-1,1.1-4.4-1.7-6.1-6
				l-3.5-11.2C1112.9,662.5,1110.9,658.3,1112.7,657.5z"/>
			<path class="st4" d="M1124.7,662.7l-0.7-1.5c-1.6-0.3-2.3,1.8-2,0.2c0,0,3.1-19.6,3.1-19.7c0.4-2.1,2.6-3.8,5-1.6
				c1.4,1.3,0,7.5-0.7,11.6c-0.5,2.8-1.7,9.7-2.2,12.5C1126.9,665.9,1126.3,663,1124.7,662.7z"/>
			<path class="st3" d="M1144.7,668c-0.1,0-3.4-1.6-3.5-1.7c-4.7-0.3-4.3,5.1-5.7,9.4h-14.6v0.3c-0.7-0.8-1.5-1.6-2.2-2.4
				c-0.2-0.2-0.4-0.3-0.6-0.4c0.1,3.7,1.1,5.9,2.8,7.9v20.7c5.8,8.9,12.8,10.7,21,3.5l0-22.8C1142.8,679.9,1146.6,668.4,1144.7,668z
				"/>
			<path class="st4" d="M1143.3,665.7c-4.2-3.7-8.6-5.9-14.3-7.7c-5.4-1.7-9.1,0.5-10.6,5l-1.6-0.1l0.5,8.3c0,0,0.1,8.7,4.7,9.2
				c0.4,0,0.8,0.1,1.2,0.1c3.4,2.1,7.2,3,9.9,2.3c3.8-1,5.2-9.3,7.7-11.2C1143.1,669.7,1147.5,669.4,1143.3,665.7z"/>
		</g>
	</g>
	<g>
		<path class="st2" d="M1090.7,595.1l-7.2-7c-5.9-5.5-17.1-1-24.4,2.4c-2,0.9-4,2.5-3.9,4.7c0,0.8,0.4,1.6,0.4,2.4
			c-0.1,1.7-1.7,2.7-2.8,3.9c-2.5,2.8,0,11,0,11s12-9.1,19.8-10.1c1.9-0.2,5.1-1.8,6.8-1c5.9,2.7,6.4,14.2,9,18.7
			c2.5-2.2,6.4-7,6.5-10.3C1094.9,605.8,1093.6,598.2,1090.7,595.1z"/>
		<g>
			<path class="st2" d="M1092.5,593.4c-2-2-4.1-3.9-6.1-5.9c-1-1-2.1-2-3.4-2.7c-2.4-1.3-5.2-1.7-7.8-1.6
				c-5.8,0.3-11.3,2.5-16.4,4.9c-2.8,1.3-5.7,3.2-6,6.6c-0.1,0.9,0.1,1.7,0.3,2.5c0.1,0.5,0.1,0.4-0.2,0.8c-0.8,1.1-1.9,1.7-2.6,2.9
				c-2.1,3.5-1,8.7,0.1,12.4c0.4,1.4,2.3,2.5,3.7,1.5c4.3-3.3,9.2-6.4,14.2-8.4c0.8-0.3,1.6-0.6,2.4-0.8c1-0.3,1.9-0.4,2.6-0.5
				c1.6-0.2,3.8-1.4,5.1-1.1c0.4,0.1-0.3-0.2,0.2,0.1c0.1,0.1,0.3,0.2,0.4,0.3c0,0,0.4,0.3,0.1,0.1c0.1,0.1,0.3,0.2,0.4,0.3
				c0.6,0.6,0.8,0.9,1.3,1.7c0.9,1.5,1.4,2.8,1.9,4.5c1.1,3.6,1.7,7.5,3.6,10.8c0.8,1.5,2.8,1.6,3.9,0.5c3.8-3.5,7.4-8.2,7.2-13.6
				C1097.1,603.4,1096,597.3,1092.5,593.4c-2.1-2.4-5.7,1.1-3.5,3.5c0.3,0.4,1,1.4,1.3,2.2c0.4,0.9,0.7,1.9,1,2.9
				c0.6,2.1,0.9,4.3,1,6.5c0,1,0.1,1.6-0.2,2.4c-0.3,1-0.8,1.9-1.3,2.7c-1.2,1.8-2.6,3.5-4.2,5c1.3,0.2,2.6,0.3,3.9,0.5
				c-0.5-0.8-0.4-0.7-0.7-1.6c-0.3-0.8-0.5-1.6-0.8-2.4c-0.5-1.9-1-3.7-1.6-5.6c-1.1-3.6-2.7-7.5-6.1-9.6c-2.1-1.4-4.4-1-6.8-0.4
				c-2.1,0.6-3.6,0.7-5.8,1.3c-3.9,1.2-7.6,3.2-11.1,5.4c-2.2,1.3-4.3,2.8-6.3,4.3c1.2,0.5,2.4,1,3.7,1.5c-0.3-1-0.5-2.1-0.7-3.1
				c-0.1-0.8-0.2-1.5-0.3-2.5c0-1.1,0-1.6,0.2-2.4c0,0,0.3-0.8,0.1-0.3c0-0.1,0.1-0.3,0.2-0.4c-0.4,0.5,0.4-0.4,0.4-0.4
				c0.2-0.2,0.4-0.4,0.7-0.6c1-1,1.9-2.1,2.3-3.5c0.2-0.8,0.1-1.6,0-2.5c-0.1-0.4-0.3-0.9-0.2-1.3c0.2-0.9,1.6-1.6,2.3-2
				c4.2-2.1,9-4,13.7-4.6c2.1-0.3,4.4-0.2,6.3,0.6c1.1,0.5,1.8,1.2,2.6,2c2.1,2,4.2,4.1,6.3,6.1
				C1091.3,599.1,1094.8,595.6,1092.5,593.4z"/>
		</g>
	</g>
</g>
<g>
	<g>
		<path class="st7" d="M441.2,1143.1c1.1-0.8,2.8-0.4,3.8,0.5c1,1,2.6,4.1,2.6,5.5c0,1.4-0.4,2.7-0.8,4c-0.4,1.2-2,6.2-3.1,6.9
			c-0.9,0.5-1-2.5-4.6-4.6c-2.6-1.5-1.5-1.2-1.1-2.2L441.2,1143.1z"/>
	</g>
	<g>
		<path class="st8" d="M442.9,1152.7l-0.1-17.4c1.9-0.6,5.1,0.5,6.2,2.2c1,1.7,1.8,13.2,1.3,15.1c-0.5,1.9-4.3,4-5.1,6.4
			L442.9,1152.7z"/>
	</g>
	<path class="st3" d="M445.2,1120.1c0,0-1.9,20.9-1.6,27.6c0.2,3.5,2.4,6.6,1.1,9.8c-1.4,3.4-4.6,6.1-8.2,6.7
		c-3.6,0.6-10-0.8-10.6-4.4c-0.9-5-0.4-6.4,0.4-10.9c1.4-7.7-1-29.3-1-29.3L445.2,1120.1z"/>
	<g>
		<path class="st2" d="M438.8,1165.6l3.6,0.8c-0.4,1.1,0.1,6-0.1,7.3c-0.9,1.2-2.4,2-4.1,2.4c-3.4,0.9-7.8,0.2-10.2-2.2
			c0-2.2,0-10.7,0-10.7L438.8,1165.6z"/>
	</g>
	<g>
		<path class="st2" d="M442.6,1166.9c-3.2,3.1-9.5,4.4-13.4,1.9c-1.8-1.1-3.9-4.1-4.5-6.1c-0.2-0.8,0-7.4,1.4-7.8
			c1.4-0.4,12.3,0.3,19,1.4c0,0,0.8,3.2,0.3,5.6C445,1163.8,444,1165.5,442.6,1166.9z"/>
	</g>
	<g>
		<path class="st2" d="M448.6,1198.4l3.2,0.9c-0.4,1-0.2,5.5-0.5,6.7c-0.5,0.5-1.1,1-1.9,1.3c-0.6,0.3-1.3,0.5-2,0.6
			c-3.2,0.6-7.1-0.2-9.1-2.5c0-0.8,0.1-2.3,0.2-4c0.2-2.7,0.4-5.7,0.4-5.7L448.6,1198.4z"/>
	</g>
	<g>
		<path class="st4" d="M440.3,1182.9c2-12.1,2.4-34.5,2.4-34.5l22.2-5.1c0,0-3.8,27.7-1.4,30.3c2.3,2.6,6.8,9.9,11.7,9.7
			c4.3-0.2,6.4-0.7,9.7,0.2c1.1,0.3,2.3,2,2.5,3.2c0.1,0.7-0.3,1.5-0.6,2.1c-1.4,2.6-3,5.2-5.3,7c-8.5,6.5-21,0.4-30.5,3.4
			c-3.9,1.2-9.1,2.2-11.6-0.9C436.9,1195.4,439.7,1186.5,440.3,1182.9z"/>
	</g>
	<path class="st2" d="M437,1193.9c0.1-0.6,0.2-1.2,0.3-1.8c0.7-2.9,2.5-7,2.5-7s7.1,1.6,9.3,3.3c2.4,1.9,4.2,4.8,7,6
		c4.2,1.8,16.3,1.1,19.3,0.2c6-1.7,6.5-2.6,6.5-2.6s0.1-6.7-5.6-7.8c-1.2-0.2-3-1-3-1s8.5-1.2,12.8-1.2c4.5,0,4,4,3.6,7.1
		c-0.4,3-12.2,12.1-15.6,13.1c0,0-0.1,0-0.1,0c-3.5-2.2-7.2-3.9-11.4-3.4c-2-0.5-4.2,0.2-6.2,0.8c-3.1,0.8-4.9,1.6-7.9,2.4
		c-1.9,0.5-3.4,0.5-5.4,0.2c-2.3-0.3-4.4-1.9-5.4-4.1C437,1196.8,436.9,1195.3,437,1193.9z"/>
	<g>
		<path class="st2" d="M473.8,1202.2c-0.8,0.2-1.6,0.4-2.3,0.4c-3-0.3-7.5-3.1-7.6-3.1c-0.5-0.3-1-0.5-1.5-0.6
			C466.6,1198.2,470.3,1200,473.8,1202.2z"/>
	</g>
	<g>
		<path class="st2" d="M418.9,975.8c-2.8,7.8-0.9,41,0.9,46.1c6.2,17.3,2.7,47,3.4,70c1.1,33.2,1.7,35.1,1.7,35.1s2.9,3,10.8,3.5
			c8,0.5,11.8-5.2,11.8-5.2l1.6-80.6c0,0,2.2-11,2.3-17.5l2.2-27.2L418.9,975.8z"/>
	</g>
	<g>
		<path class="st2" d="M480,991.5c0,0-47.1,1-47.2,1c-1.1,0,0.9,15.6,1.2,16.9c2.3,10.1,5.9,19.8,8.3,29.9c2.3,9.6,3.5,18.6,3,28.5
			c-0.5,10.1-1,20.1-1.4,30.2c-0.6,15.7-1.2,31.4-1.6,47.1c-0.1,3-0.2,6.1-0.2,9.1c0,0,14.4,8.2,25.2,0.3
			C467.3,1154.5,474.4,1044.3,480,991.5z"/>
	</g>
	<path class="st6" d="M472.2,886.4c-3.9-1.7-8.6-3.9-8.6-3.9s0.8,19.3-7,19.3c-7.8,0-37.5-10-37.5-10s8.4,33.3,7.5,65.8
		c-0.1,2.8-12.2,12.5-10.9,20.4c0.9,5.6,4.7,14.8,26.9,16.9c22.2,2.1,43.7-6.8,45.3-9.5c0.8-1.4-9.1-17.8-10.8-35.3
		c-1.5-15.1,5.1-31.8,5.1-31.8L472.2,886.4z"/>
	<path class="st3" d="M473.6,863.1c5.2,4.5,5.6,7.8,2.4,10c-1.7,1.2-5.3,10.6-7.7,10.8c-2.7,0.2-13.3-7.2-15.2-8.4
		c-3.6-2.4,3.5-9.1,11.7-18.8c2.2-6.2,11.5,1.5,18.8,6.2c4.1,2.6,6.8,4.6,5.5,6.4c-1.7,2.3-3.9,0.1-7.1-1.5
		C479.8,866.8,477.2,864.7,473.6,863.1z"/>
	<path class="st4" d="M453.2,866.6c0.9-3.1,3.5-5.3,6.1-7.1c2.6-1.9,5.4-3.6,7.1-6.3c0.6-0.9,1-1.9,1.8-2.7c0.8-0.8,2-1.2,2.9-0.8
		c1.4,0.7,1.3,2.7,0.8,4.2c-0.9,2.5-8.5,15.7-10.5,17.4L453.2,866.6z"/>
	<path class="st4" d="M471.7,811.4c2.3,2.5,3.9,4.6,3.4,8.1c-0.8,4.9-2.7,9.8-2.2,15.2c0.2,3.3-0.7,9.7-1.2,12.1
		c-1.4,6.5-4.9,11.1-8.6,12.4c-3.7,1.3-8.2-0.3-8.2-0.3l-0.8,7l9.1,9L442.1,885l-19.7-4.9l1-14.1l8.6-3.3c0,0-1.1-16.3-1.1-22
		c17.8,6.4,10.6,3.2,16.4-6.1C463.3,809.8,460,816.5,471.7,811.4z"/>
	<g>
		<path class="st2" d="M428.7,807.6c-12.6,2.2-10.5,24.6-4.3,31.8c3.5,4.1,3.6,4.1,5.6,6.4c1.9,2.2,3.8,3.4,6.3,4.8
			c2-1.7,4.1-3.4,6.1-5.1c1.4-1.2,3.7-2.6,4.6-4.2c1.6-2.8,3.7-6.6,7.2-7.2c1.2-0.2,2.5,0,3.6,0.5c0.4,0.2,0.9,0.4,1.4,0.3
			c0.6-0.1,1.1-0.7,1.4-1.2c2.6-3.8,5.2-7.6,7.8-11.4c1.7-2.4,6.5-5.4,6-8.8c-0.9-5.6-5-10.9-9.7-13.8c-6.3-3.9-12.8-6-20-5.8
			c-3.4,0.1-6.3,0.8-9,2.9c-2.4,1.9-5.1,4.6-6.4,7.4C429.3,804.7,428.3,807.7,428.7,807.6z"/>
	</g>
	<path class="st5" d="M434.4,946.3c-4.2-23.9-20-52.9-8.3-75.4c1.9,2.7,8.6,3.6,11.6,4.2c5.6,1.3,11.2,1.8,16.8,0.6
		c1.4-0.3,2.8-0.7,4-1.5c1.2-0.8,2.2-2,2.4-3.4c-0.1,0.4,11.9,6.3,12.8,6.8c3.9,2.3,9.2,5.1,11.6,9.1c6.3,10.8,0.3,23.7-1.7,35.2
		c-1.1,6.5-3.1,13.1-2.7,19.7c0.4,6.3,2,12.2,3.8,18.2c1.4,4.9,6.1,18.7,2.9,20.5c-3.2,1.8-12.8,4.4-17.8,6.3
		c-6.6,2.4-13.5,4.1-20.5,4.3c-4,0.1-10.2-1-16-3.1C432.5,974,437,960.5,434.4,946.3z"/>
	<path class="st5" d="M422.2,938.2c-2.3-10.5-20-51.1-12.1-63.8c1.6-2.5,7.1-7.6,10.7-9.4c3-1.5,7.8-1.2,9.4-0.5
		c-3.1,2.4-5.4,6.8-3.3,10.3c0,0.1,0.1,0.1,0.1,0.2c-11.7,22.5,3.3,47.3,7.5,71.2c2.6,14.1-1.9,27.7-1.1,41.7
		c-8.2-3-15.8-8.3-15.8-15.5c0-4.2,1.6-14.5,2.8-18.5C422.1,948.6,424.1,947.2,422.2,938.2z"/>
	<path class="st5" d="M462.1,908.3c5.3,8.2,22.4,27.6,22.4,27.6s6.3,9.3,12.1,10.3c13.7,2.3,23.4-12.8,15.9-22.7
		c-8.5-11.2-20.6-21.3-27.3-32.5c-6.3-10.5-4.6-4.3-4.6-4.3S462.1,908.3,462.1,908.3z"/>
	<g>
		<path class="st4" d="M459.2,836.2c-0.7-1.5-1.3-2.9-2.6-4.1c-1.3-1.1-3.2-1.7-4.9-1.1c-1.4,0.6-2.2,1.9-2.5,3.2
			c-1,3.8,1.2,8.1,5.1,10L459.2,836.2z"/>
	</g>
	<circle class="st6" cx="458.1" cy="845.8" r="3.1"/>
	<g>
		<path class="st2" d="M403.5,884.4c7.2,7.9,15.4,0.8,13.1-6.5c-6-18.9-3.3-26.5,13.1-32.7c0.9-0.9,4.2,2.8,4.2,2.8
			s-2.4,5.1-2.6,5.5c-5,13.2,5.8,16.3,4.9,26.4c-0.5,8.1-4.6,16.9-16.9,18.7C412.7,899.6,404.5,892,403.5,884.4z"/>
	</g>
</g>
<g>
	<path class="st2" d="M803.2,962.8c-11.3,8.9-27.7,16.2-49.1,20.4c-6.7,1.3-13.8,2.3-21.4,3c-7,0.6-14.3,1-22.1,1
		c-44.6,0-76.1-10.6-94-25.4c1,30.9,0.9,44.2,0.9,44.2h0.6c0,0,0,0,0,0c0,37.7,35.9,64.7,82,68.2c2.6,0.2,5.2,0.3,7.8,0.3
		c0.7,0,1.4,0.1,2.2,0.1c50.8,0,91.9-28.2,91.9-68.6c0,0,0,0,0,0h0.3C802.3,1006,801.7,993.3,803.2,962.8z"/>
	<ellipse class="st9" cx="709.9" cy="998.5" rx="99" ry="48.1"/>
	<ellipse class="st10" cx="709.9" cy="986.4" rx="99" ry="48.1"/>
	<ellipse class="st9" cx="709.9" cy="974.3" rx="107" ry="48.1"/>
	<ellipse class="st10" cx="709.9" cy="962.2" rx="107" ry="48.1"/>
	<ellipse class="st9" cx="709.9" cy="950.1" rx="109" ry="48.1"/>
	<ellipse class="st10" cx="709.9" cy="938" rx="109" ry="48.1"/>
	<ellipse class="st9" cx="709.9" cy="925.9" rx="111" ry="48.1"/>
	<ellipse class="st10" cx="709.9" cy="913.8" rx="111" ry="48.1"/>
	<path class="st11" d="M602.2,899.5c0,1.6,0.2,3.1,0.5,4.7c-0.1-2-0.3-3.9-0.4-5.8C602.3,898.8,602.2,899.1,602.2,899.5z"/>
	
		<linearGradient id="SVGID_00000036950368448733400630000018087176654223233689_" gradientUnits="userSpaceOnUse" x1="523.1403" y1="684.1404" x2="906.087" y2="684.1404">
		<stop  offset="0" style="stop-color:#FFF2CE"/>
		<stop  offset="1" style="stop-color:#FFCE19"/>
	</linearGradient>
	<path style="fill:url(#SVGID_00000036950368448733400630000018087176654223233689_);" d="M782.8,482.5
		C782.8,482.5,782.8,482.5,782.8,482.5c-11.1-4.2-22.7-7.5-34.7-9.6c-6.4-1.1-12.8-1.9-19.4-2.4c-4.7-0.4-9.4-0.6-14.1-0.6
		c-105.7,0-191.5,85.7-191.5,191.5c0,61.9,58,148.1,65.7,171c0,0.1,9.2,35.6,9.3,35.7c1.8,5.7,3.2,16.7,4.2,30.2
		c1.4-26.5,50.3-47.8,110.7-47.8c14.1,0,27.5,1.2,39.9,3.3c13,2.2,24.8,5.5,34.8,9.6c0.8-2.1,1.7-4.4,2.6-6.8
		c-0.9,2.4-1.7,4.7-2.6,6.8c20.9,8.5,34.4,20.4,35.8,33.8c1.5-11.6,3.6-21.2,6.3-26.8c0.5-1.1,12.4-38.6,12.7-39.5
		c11.1-27.7,63.5-107.8,63.5-169.5C906.1,579.7,854.9,510,782.8,482.5z"/>
	<g>
		
			<linearGradient id="SVGID_00000036220855939724827780000006475358084197558174_" gradientUnits="userSpaceOnUse" x1="689.2536" y1="948.2346" x2="689.2536" y2="839.4552">
			<stop  offset="0" style="stop-color:#FFF2CE"/>
			<stop  offset="1" style="stop-color:#FFCE19"/>
		</linearGradient>
		<path style="fill:url(#SVGID_00000036220855939724827780000006475358084197558174_);" d="M775,895.7c4-18-2.8-40-17.3-51.5
			c-9.9-2.1-20.4-3.6-31.6-4.3c-4.3-0.3-8.7-0.4-13.2-0.4c-60.3,0-109.3,23.7-110.7,53.2c0.1,2.1,0.3,4.3,0.4,6.5
			c3.9,20.1,30,36.9,66.1,44.7c11.8,2.5,24.7,4.1,38.3,4.4C736.3,939.6,766.8,932.2,775,895.7z"/>
		
			<linearGradient id="SVGID_00000168092846663702895660000016219360746993865150_" gradientUnits="userSpaceOnUse" x1="765.2958" y1="948.3899" x2="765.2958" y2="844.1587">
			<stop  offset="0" style="stop-color:#FFF2CE"/>
			<stop  offset="1" style="stop-color:#FFCE19"/>
		</linearGradient>
		<path style="fill:url(#SVGID_00000168092846663702895660000016219360746993865150_);" d="M787.7,853.8c-8.8-4-18.9-7.2-30-9.6
			c14.5,11.6,21.3,33.6,17.3,51.5c-8.2,36.5-38.8,43.9-67.9,52.5c2,0.1,3.9,0.2,5.9,0.2c20,0,38.6-2.6,54.8-7.2
			c28.8-8.1,49.5-22.3,54.6-39.1c0.3-3.7,0.7-7.3,1.1-10.7C822.1,876.5,808.6,863.2,787.7,853.8z"/>
	</g>
	<g>
		
			<linearGradient id="SVGID_00000158031187928016719270000013818270240519834018_" gradientUnits="userSpaceOnUse" x1="587.8429" y1="805.9653" x2="587.8429" y2="544.7675">
			<stop  offset="0" style="stop-color:#FFF2CE"/>
			<stop  offset="1" style="stop-color:#FFFFFF"/>
		</linearGradient>
		<path style="fill:url(#SVGID_00000158031187928016719270000013818270240519834018_);" d="M597.1,537
			c-12.5,12.5-23.1,27.3-30.8,43.2c-7.8,16.1-13.4,33.2-15.9,50.9c-1.4,9.4-2.2,18.8-2.1,28.3c0.1,9.5,1,19,2.9,28.3
			c3.4,17.1,10.3,33.4,17.9,49.1c7.2,14.8,15.2,29.1,21.9,44.1c0.8,1.8,1.6,3.7,2.4,5.6c-0.5-1.1-0.9-2.2-1.4-3.3
			c3.5,8.4,6.6,17,8.8,25.8c0.8,3.3,3.4,6.5,6.3,8.2c2.9,1.7,7.3,2.4,10.6,1.4c3.3-1.1,6.5-3.1,8.2-6.3c1.7-3.3,2.3-6.9,1.4-10.6
			c-6.5-26-19.9-49.5-31.8-73.3c-3.2-6.5-6.3-13-9.2-19.6c0.5,1.1,0.9,2.2,1.4,3.3c-5.3-12.5-9.4-25.6-11.3-39.1
			c0.2,1.2,0.3,2.4,0.5,3.6c-1.8-13.3-1.5-27,0.3-40.3c-0.2,1.2-0.3,2.4-0.5,3.6c1.9-14.3,5.8-28.3,11.4-41.6
			c-0.5,1.1-0.9,2.2-1.4,3.3c5.1-12.1,11.8-23.6,19.8-34c-0.7,0.9-1.4,1.8-2.1,2.8c3.8-4.9,7.9-9.5,12.3-13.9c2.5-2.5,4-6.2,4-9.7
			c0-3.4-1.5-7.4-4-9.7c-2.6-2.4-6-4.2-9.7-4C603.1,533.2,599.7,534.4,597.1,537L597.1,537z"/>
	</g>
</g>
<g>
	<g>
		<polygon class="st2" points="361.3,648.1 366.6,673.6 386.6,704.3 357.8,727.8 344.9,658.2 		"/>
	</g>
	<path class="st3" d="M293.8,646.6c0,0,22.5,4,25.6,6.5c0.8,0.7,1.7,1.3,2.8,1.6c2,0.4,3.8-0.9,5.4-2c4-3,4.5-9.8,8.4-12.8l2.3-7.6
		l-8-4.4c0-0.7-0.3-11.4-0.3-11.4h-26.5c0,0.7-0.3,10.7-0.3,11.4l-10.8,6.1L293.8,646.6z"/>
	<g>
		<path class="st2" d="M291.8,955.1H303c1.9,0,3.4-1.5,3.4-3.4v-9.3c0-1.9-1.5-5.6-3.4-5.6h-11.2c-1.9,0-3.5,3.7-3.5,5.6v9.3
			C288.3,953.5,289.9,955.1,291.8,955.1z"/>
	</g>
	<polygon class="st4" points="305.9,962.1 305.6,940.5 306.2,925.8 288.9,924.5 288.3,961.6 	"/>
	<g>
		<path class="st2" d="M392.1,728.2c-4.2,6.6-12.8,10-20.4,8.1c-7.6-1.9-22.4-18.3-15-20.7c0.7-0.2,29.9-6.4,29.9-6.4L392.1,728.2z"
			/>
	</g>
	<polygon class="st4" points="349.7,935.1 341.8,922.3 341.4,907.9 320.6,905.7 320.1,928.9 	"/>
	<g>
		<path class="st5" d="M323,788.8l-1.5,0.4v-46.8h40.7c-3.7,28-7.9,73.7-11.3,111.5l-29-43.9C322.3,802.9,322.6,795.8,323,788.8z"/>
	</g>
	<g>
		<path class="st5" d="M321.9,810l29,43.9c-3.1,35.4-5.5,64-6.1,65c-1.2,2.1-6.4,4.1-14.9,4.1c-8.4,0-14.3-6.4-14.3-6.4
			S319.1,863.1,321.9,810z"/>
	</g>
	<g>
		<path class="st5" d="M285.4,742.5h39.4v46.8l-7.3,2c-2.5,50.4-7.9,144.9-7.9,144.9s-15.7,8.2-25.7-1.5
			C284,934.7,284.7,799.2,285.4,742.5z"/>
	</g>
	<g>
		<path class="st2" d="M333.5,941c-0.3,1.1,0.4,3.3,0.1,4.4c-4.1,4.5-12.1,1.5-15-2.4c-0.6-2.2-1.8-7.5-1.5-9L333.5,941z"/>
	</g>
	<g>
		<path class="st2" d="M350.7,932.4c-1.3-1.6-6.5-6.4-6.5-6.4s-2.1,3.3-3.3,4c-3.3,1.8-7.8,1.2-11.5,0.3c-3.5-0.8-5.8-2.6-9-4.4
			c-0.2-0.1,0.7-2.4-0.7-1.9c-0.2,0.1-1.2,2-1.3,2.1c-1,1.7-2.1,3.5-2.6,5.5c-0.5,2-0.4,4.2,0.8,5.8c1.5,2.2,4.4,2.9,7,3.6
			c13,3.8,20.6,11.7,33.5,15.9c2.7,0.9,5.5,1.5,8.3,1.3c3.2-0.3,8.3-2.5,8.2-6.3c-0.1-2.7-2.6-6.1-5-7.3c-3.3-1.7-3.4-2.1-6.7-3.6
			L350.7,932.4z"/>
	</g>
	<path class="st6" d="M342.6,633.8c-4-1.9-8.8-4.2-8.8-4.2s-3.1,6.3-11.2,7.2c-9.4,1-29.8-3.2-29.8-3.2l-15.9,155.8
		c22-5.2,75.8-24.1,75.8-24.1L342.6,633.8z"/>
	<g>
		<path class="st2" d="M362.2,651.3c-0.6-3-1.5-6.1-3-9.1c-2.6-5.4-6-6.3-11.3-8.2c-5.9-2.1-12.8-3.8-12.8-3.8s4.3,16.2,5.5,23.5
			c2.2,13.3,2.2,25.9,2.6,37.6c1.9,54.3-2.8,79.8,1.8,81.6c4.6,1.8,12.6-2.3,15.6-7.6c5-8.8,0.9-22.6,2.1-39
			c0.8-8.9,0.2-18.1,0.2-27c0-9,0.2-17.9,0.2-26.9C363,665,363.5,658.1,362.2,651.3z"/>
	</g>
	<g>
		<path class="st2" d="M308.8,737.6c-0.9,13.7-1,27.3-2,41c-0.4,6.3-20.8,12.4-29.7,7.8c-7.5-3.8-4.8-34.8-4.7-45.9l-8.3-40.8
			c-0.2-3.2-0.5-6.2-0.8-8.7c-1.9-22.7-0.8-35.3,7.5-43.7c5.4-5.5,24-14.5,24-14.5c3.2,9.5,6.8,18.5,7.9,28.5
			c1.3,12.2,2.6,24.5,2.9,36.8c0.2,11.6,5.1,19,3.9,30.5C309.3,731.6,309,734.6,308.8,737.6z"/>
	</g>
	<path class="st4" d="M340.2,596.5l0.9-16.4l-16.6-12.9l-18.4,6l-4.3,17.1c-0.4,2.6-0.4,8.4-0.8,14.5c-1.3,16.2,9.2,22.9,14.7,23.6
		c5.5,0.7,19.9,1,22.8-15.8L340.2,596.5z"/>
	<g>
		<path class="st2" d="M306.4,943.1c-0.1,4.5,1.8,13,2.7,17.4c0.8,3.8,2.2,7.4,2.5,11.2c0.5,5.9-2.2,12.2-7.1,15.4
			c-5,3.2-12.2,2.9-16.4-1.3c-4.1-4-4.8-10.4-4.7-16.2c0.1-7.8,4.4-17.2,5.1-25.7l0.9,13.3l15.1,1.8L306.4,943.1z"/>
	</g>
	<g>
		<path class="st2" d="M294.8,962.9h4.7c3.2,0,5.8-2.6,5.8-5.8l0,0c0-3.2-2.6-5.8-5.8-5.8h-4.7c-3.2,0-5.8,2.6-5.8,5.8l0,0
			C289,960.2,291.6,962.9,294.8,962.9z"/>
	</g>
	<g>
		<path class="st2" d="M340.8,590.5c1.6-5.1,2-9.8-0.3-14.9c-1.5-3.4-4.1-6.2-7-8.4c-7.1-5.7-16.7-8.3-25.6-6.4
			c-8.9,1.9-16.6,6.2-19.2,14.9c-1.7,5.7-1.2,11.9,0.4,17.6c1.7,5.7,4.5,11,7.3,16.2c2.7-5.3,5.3-10.6,8-15.9
			c2.5-4.9,4-8.6,7.6-12.9c2.6-3.1,7.1-6.4,11.1-7.1c4.1-0.7,8.4-1.1,11.7,2c1.9,1.8,3,4.4,3.5,7c0.6,2.6,0.3,6.6,0.7,9.2
			L340.8,590.5z"/>
	</g>
	<path class="st4" d="M302.2,596.1c-13-3.6-14,16.3,0.5,15.9L302.2,596.1z"/>
	<g>
		<path class="st2" d="M321.9,572c-1.7,3-3.5,6-5.2,8.9c-2.2,3.8-4.5,7.6-7.8,10.5c-3.3,2.9-10.4,7.5-12.1,3.4
			c-0.4-0.9,0.9-16.9,0.9-16.9L321.9,572z"/>
	</g>
	<g>
		<path class="st2" d="M331.5,599.1c-0.2,2.1,0.4,5.1,3.1,5c1.1,0,2.1-0.7,2.8-1.4c0,0,0.3-0.4,0.1-0.1c0.1-0.1,0.1-0.2,0.2-0.2
			c0.1-0.1,0.2-0.3,0.3-0.4c0.1-0.2,0.2-0.3,0.2-0.5c0.1-0.3-0.1,0.2,0-0.1c0-0.1,0.1-0.2,0.1-0.3c0.1-0.4,0.3-0.8,0.4-1.3
			c0.1-0.5,0.2-0.9,0.2-1.2c0-0.5,0.1-0.9,0.1-1.4c0-0.2,0-0.4,0-0.6c0-0.1,0-0.2,0-0.4c0-0.4,0,0.2,0-0.1c-0.1-0.4-0.2-0.8-0.3-1.2
			c-0.1-0.3,0.1,0.1,0,0c0-0.1-0.1-0.2-0.1-0.2c0-0.1-0.1-0.2-0.2-0.3c0,0-0.2-0.3,0-0.1c-0.1-0.1-0.2-0.3-0.4-0.4
			c-0.1-0.1,0.2,0.1,0,0c-0.1-0.1-0.2-0.1-0.2-0.1c-0.3-0.2,0.2,0,0,0c-0.1,0-0.2-0.1-0.2-0.1c-0.1,0-0.2-0.1-0.3-0.1
			c0.3,0-0.1,0-0.1,0C334.1,593.6,331.9,596.5,331.5,599.1c-0.1,0.7-0.5,1.2-1.2,1.2c-0.6,0-1.3-0.6-1.2-1.2
			c0.4-3.4,2.8-6.9,6.3-7.8c1.2-0.3,2.6-0.2,3.7,0.5c1,0.6,1.6,1.6,1.9,2.7c0.7,2.1,0.5,4.7-0.2,6.8c-0.8,2.5-2.6,4.7-5.3,5.2
			c-1.9,0.3-3.8-0.2-5-1.8c-1.2-1.6-1.6-3.7-1.4-5.6c0.1-0.7,0.5-1.2,1.2-1.2C330.9,597.9,331.6,598.4,331.5,599.1z"/>
	</g>
	<g>
		<path class="st2" d="M314.3,603.6c-0.1,1.3,0,2.7,0.8,3.7c0.7,1,1.9,1.4,3.1,1.3c1.1,0,2.3-0.5,3.2-1.2c0.2-0.2,0.4-0.3,0.5-0.5
			c0,0,0.2-0.3,0,0c0.1-0.1,0.1-0.2,0.2-0.2c0.2-0.4,0.4-0.7,0.6-1.1c-0.1,0.2,0-0.1,0-0.1c0-0.1,0.1-0.2,0.1-0.3
			c0.1-0.2,0.1-0.4,0.2-0.6c0.1-0.2,0.1-0.5,0.2-0.7c0-0.1,0-0.2,0.1-0.4c0-0.1,0-0.2,0-0.2c0,0.1,0,0.1,0,0c0-0.4,0.1-0.9,0.1-1.3
			c0-0.2,0-0.5,0-0.7c0,0,0-0.4,0-0.2c0,0.1,0-0.2-0.1-0.3c0-0.2-0.1-0.4-0.2-0.6c0-0.1-0.1-0.2-0.1-0.3c-0.1-0.3,0.1,0.2,0-0.1
			c-0.1-0.2-0.2-0.3-0.3-0.5c0,0-0.2-0.3,0-0.1c-0.1-0.1-0.2-0.2-0.3-0.3c-0.1-0.1-0.1-0.1-0.2-0.2c0.2,0.2,0,0-0.1,0
			c-0.1-0.1-0.3-0.2-0.5-0.2c0.3,0.1-0.1,0-0.1,0c-0.1,0-0.2-0.1-0.3-0.1c0,0-0.4,0-0.1,0c-0.2,0-0.4,0-0.6,0
			c-1.4,0-2.8,0.7-3.8,1.6c-1.3,1.1-2,2.5-2.3,4.1c-0.1,0.7-0.9,1-1.5,0.9c-0.7-0.2-0.9-0.8-0.9-1.5c0.5-3.6,3.6-6.8,7.2-7.4
			c1.4-0.3,2.9-0.2,4.1,0.6c1,0.6,1.7,1.6,2.1,2.8c0.8,2.1,0.5,4.8-0.3,6.8c-0.4,1-0.9,2-1.7,2.8c-1.2,1.3-2.9,2-4.7,2.2
			c-1.9,0.2-4-0.4-5.3-1.9c-1.3-1.5-1.8-3.6-1.6-5.6c0.1-0.7,0.5-1.2,1.2-1.2C313.7,602.4,314.4,602.9,314.3,603.6z"/>
	</g>
	<g>
		<path class="st2" d="M329.6,601.8c-0.1-0.1-0.2-0.1-0.3-0.2c-0.1,0-0.2,0,0.1,0c0,0-0.1,0-0.1-0.1c-0.1,0-0.2-0.1-0.3-0.1
			c-0.1,0-0.1,0-0.2,0c-0.1,0,0.3,0,0.1,0c-0.2,0-0.4,0-0.7,0c-0.2,0,0.3-0.1,0.1,0c-0.1,0-0.1,0-0.2,0c-0.1,0-0.2,0.1-0.4,0.1
			c-0.1,0-0.1,0-0.2,0.1c-0.2,0.1,0,0,0.1,0c-0.1,0.1-0.2,0.1-0.3,0.2c-0.1,0.1-0.2,0.1-0.4,0.2c-0.1,0-0.1,0.1-0.2,0.1
			c-0.2,0.2,0.1-0.1,0,0c-0.2,0.2-0.5,0.4-0.7,0.6c-0.1,0.1-0.2,0.2-0.3,0.4c-0.2,0.2,0.1-0.2,0,0.1c-0.1,0.1-0.1,0.2-0.2,0.2
			c-0.4,0.5-1.1,0.8-1.7,0.4c-0.5-0.3-0.8-1.1-0.4-1.7c0.9-1.3,2-2.4,3.6-2.9c1.2-0.4,2.6-0.2,3.7,0.4c0.6,0.3,0.8,1.1,0.4,1.7
			C330.9,601.9,330.2,602.2,329.6,601.8L329.6,601.8z"/>
	</g>
	<g>
		<path class="st2" d="M312.2,604.4c-4.2-2.5-8.4-5-12.6-7.5c-0.6-0.4-1.2-0.7-1.8-1.1c-1.4-0.8-0.1-2.9,1.2-2.1
			c4.2,2.5,8.4,5,12.6,7.5c0.6,0.4,1.2,0.7,1.8,1.1C314.8,603.1,313.5,605.2,312.2,604.4L312.2,604.4z"/>
	</g>
	<g>
		<path class="st2" d="M340.9,589.6c0,1.3,0,2.6,0.1,3.9c0,0.2,0,0.4,0,0.6c0,0.6-0.6,1.3-1.2,1.2c-0.7,0-1.2-0.5-1.2-1.2
			c0-1.3,0-2.6-0.1-3.9c0-0.2,0-0.4,0-0.6c0-0.6,0.6-1.3,1.2-1.2C340.3,588.4,340.9,588.9,340.9,589.6L340.9,589.6z"/>
	</g>
	<polygon class="st10" points="370.4,733.1 425.3,704 384.9,680.9 330.9,706.5 	"/>
	<polygon class="st10" points="418.2,703.9 384.8,684.8 337.8,707 370.6,729.1 	"/>
	<g>
		<g class="st16">
			<polygon class="st17" points="447.3,664.5 391.9,689.3 370.5,732.9 428.6,708 			"/>
			<g>
				<path class="st17" d="M447,661.4L447,661.4c-0.6-0.5-1.5-0.7-2.3-0.3l-55,24.6c-1.5,0.7-1.8,2.7-0.5,3.7l0,0
					c0.6,0.5,1.5,0.7,2.3,0.3l55-24.6C448,664.5,448.3,662.5,447,661.4z"/>
			</g>
			<polygon class="st17" points="391.9,689.3 388.1,686.1 366.7,729.8 370.5,732.9 			"/>
		</g>
	</g>
	<path class="st4" d="M351.2,708c-1.9,0.6-25.6,15.8-27.7,15.7l-7-19.7c3.8-0.7,24.6-6,28.4-6.7L351.2,708z"/>
	<path class="st4" d="M332.8,705.1c0,0,7.5-11.9,12.6-13.3c3.4-1,7.1-1.5,9.8-3.6c2-1.7,1.7-2.2,4.1-3.4c1.3-0.7,3.8,0.1,6.9,2.6
		c2.5,2.1,7.8,3.9,8.3,7.6c0.2,1.5-0.6,3.3-2.1,3.5c-3.5,0.5-12.1-5.8-12.1-5.8c2.1,2.1,2.8,2.8,4.9,4.9c1.9,1.9,5.3,3.7,4.7,6.8
		c-0.2,1.3-1.2,2.5-2.4,2.9c-1.2,0.5-2.7,0.1-3.6-0.9l0.4,1.3c-0.3,1.4-1.6,2.8-2.7,2.9c-3.2,0.4-4.7-1.4-5.8-2.8l0.5,0.4
		c1.7,2-3.2,5.3-6.4,2.1c-1.6-1.6-2.7-3-4.1-4.2c-1.5-1.2-1.8-2-3.7-2L332.8,705.1z"/>
	<g>
		<path class="st2" d="M333,721.7c-3.7-4.5-5.8-16.2-2.4-21.6l-1.4-0.7c-2.7,0.4-13.8,3.1-16.6,3.5c-0.9,0.1-1.9,0.3-2.7-0.1
			c-1.2-0.5-6.6-5.9-7.4-6.9c-2.4-2.9-6.8-7.2-10-5.3l-22.3,10c0.7,11.5,13.7,26.5,17.8,28.7c5,2.8,27.3-2,41.8-6.6L333,721.7z"/>
	</g>
	<path class="st4" d="M415.4,714.9c4.5-2.3,4.3-2,8.5-5.5c1.3-1,2.2-2.5,2.4-4.1c0.2-1.6-0.6-3.5-2.2-3.8l-10.5,5.1L415.4,714.9z"/>
	<path class="st4" d="M406.3,704.7c-0.6-1.3-2.2-3.7-3.4-4.5c-2-1.3-4.7-0.5-6.9,0.3c-3.1,1.1-6.4,2.5-7.9,5.4
		c-1.6,3.1-0.5,6.7,0.5,10c1.4,4.4-9.2,11.5-3.6,12.4c6,1,20.9-3.8,25-8.3c3-3.3,11.2-8.7,10.8-13.5c-0.8-4.5-5.4-13.1-6.6-14.4
		c-1.7-1.8-6.1,0.4-5.3,2.8c1,2.8,3.5,8.5,4.1,10.1c1.6,4.3-0.8,3.7-3.1,5.1C409.8,710.1,408.1,708.5,406.3,704.7z"/>
</g>
<g>
	<polygon class="st18" points="1098.5,489.2 1103.8,522.8 1130.4,501.4 	"/>
	<polygon class="st5" points="884.8,358.8 920.7,379.6 920.7,338.1 	"/>
	<polygon class="st5" points="180.3,309.2 221.2,332.7 221.2,285.6 	"/>
	<polygon class="st19" points="571.2,126.7 536.1,131.1 557.5,159.3 	"/>
	<polygon class="st20" points="608.6,298.2 605.6,333.4 637.6,318.3 	"/>
	
		<ellipse transform="matrix(0.7071 -0.7071 0.7071 0.7071 -183.0093 439.473)" class="st18" cx="439" cy="440.6" rx="15.4" ry="15.4"/>
	
		<ellipse transform="matrix(0.7071 -0.7071 0.7071 0.7071 -39.8181 1074.2021)" class="st5" cx="1276.8" cy="585.2" rx="15.4" ry="15.4"/>
	
		<ellipse transform="matrix(0.1602 -0.9871 0.9871 0.1602 719.2935 1224.0245)" class="st20" cx="1079" cy="189.3" rx="15.4" ry="15.4"/>
	
		<ellipse transform="matrix(0.7071 -0.7071 0.7071 0.7071 -338.6776 270.7399)" class="st19" cx="157.5" cy="544.2" rx="15.4" ry="15.4"/>
	<g>
		<path class="st19" d="M1134,359.6C1135.2,359.9,1133.3,359.1,1134,359.6C1134.1,359.6,1134.7,360.1,1134,359.6
			C1133.3,358.9,1133.8,359.3,1134,359.6c0.1,0,0.2,0.1,0.3,0.2c0.4,0.4-0.6-1-0.4-0.5c0.2,0.3,0.4,0.7,0.6,1c0.5,0.9-0.4-1.1,0-0.1
			c0.1,0.4,0.3,0.7,0.4,1.1c0.2,0.7,0.4,1.5,0.7,2.2c1.3,4,3.3,7.7,7.6,9.1c4.3,1.4,8.3-0.6,11.4-3.5c1.1-1,2.1-2,3.1-2.9
			c0.7-0.6-0.9,0.6-0.3,0.3c0.1-0.1,0.3-0.2,0.4-0.3c0.3-0.2,0.6-0.3,0.8-0.5c0.5-0.3-1.3,0.4-0.5,0.2c0.1,0,0.3-0.1,0.4-0.1
			c0.4-0.2,0.5,0.4-0.7,0.1c0.1,0,0.5,0,0.6,0c0.6-0.1-1.3-0.3-0.5-0.1c0.2,0,0.3,0.1,0.5,0.1c0.7,0.2-1-0.7-0.1,0
			c0.6,0.4-0.9-0.9-0.1-0.1c0.8,0.9-0.5-1,0.1,0.1c0.1,0.3,0.3,0.6,0.5,0.8c0.4,0.6-0.2-0.4-0.2-0.5c0,0.1,0.1,0.4,0.2,0.5
			c0.2,0.7,0.5,1.4,0.7,2.2c1.1,3.7,2.6,7.4,6.2,9.3c4.4,2.3,8.9,0.9,12.5-2.1c1.1-0.9,2.1-2,3.2-3c0.1-0.1,0.7-0.5,0.8-0.6
			c0,0.1-1.1,0.7-0.4,0.3c0.1-0.1,0.3-0.2,0.4-0.3c0.2-0.2,0.6-0.3,0.8-0.4c-0.9,0.8-1,0.3-0.6,0.3c0.1,0,0.6-0.1,0.7-0.2
			c-0.3,0.3-1.3,0.1-0.6,0.1c0.6,0,0.7,0.2-0.4-0.1c0.2,0.1,0.4,0.1,0.5,0.1c0.1,0,0.2,0,0.3,0.1c0.5,0.2,0.3,0.1-0.5-0.2
			c0.1,0.1,0.4,0.2,0.4,0.2c0.7,0.4-0.7-0.7-0.4-0.3c0.1,0.1,0.2,0.2,0.3,0.3c0.7,0.6-0.4-0.7-0.2-0.3c0.2,0.3,0.4,0.6,0.5,0.9
			c0.6,1.1-0.3-1,0.1,0.1c0.3,0.8,0.5,1.6,0.8,2.4c1.3,4.4,3.4,8.6,8.2,9.9c2.5,0.7,5.6-0.9,6.2-3.5c0.6-2.7-0.8-5.4-3.5-6.2
			c-1.2-0.3,0.7,0.4,0,0.1c-0.2-0.1-0.8-0.6-0.1,0c0.7,0.6,0.2,0.2,0.1,0c-0.1-0.1-0.2-0.2-0.3-0.3c-0.4-0.4,0.6,1,0.4,0.5
			c-0.2-0.3-0.4-0.7-0.6-1c-0.5-0.9,0.4,1.1,0,0.1c-0.1-0.4-0.3-0.7-0.4-1.1c-0.2-0.7-0.4-1.5-0.7-2.2c-1.3-4-3.4-7.7-7.6-9.1
			c-4.3-1.4-8.3,0.6-11.4,3.5c-1.1,1-2.1,2-3.1,2.9c-0.7,0.6,0.9-0.6,0.3-0.3c-0.1,0.1-0.3,0.2-0.4,0.3c-0.3,0.2-0.6,0.3-0.8,0.5
			c-0.5,0.3,1.3-0.4,0.5-0.2c-0.1,0-0.3,0.1-0.4,0.1c-0.5,0.2-0.5-0.4,0.7-0.1c-0.1,0-0.5,0-0.6,0c-0.6,0.1,1.3,0.3,0.5,0.1
			c-0.2,0-0.3-0.1-0.5-0.1c-0.7-0.2,1,0.7,0.1,0c-0.6-0.4,0.9,0.9,0.1,0.1c-0.8-0.9,0.5,1-0.1-0.1c-0.1-0.3-0.3-0.6-0.5-0.8
			c-0.4-0.6,0.2,0.4,0.2,0.5c0-0.1-0.1-0.4-0.2-0.5c-0.2-0.7-0.5-1.4-0.7-2.2c-1.1-3.7-2.6-7.4-6.2-9.3c-4.4-2.3-8.9-0.9-12.5,2.1
			c-1.1,0.9-2.1,2-3.2,3c-0.1,0.1-0.7,0.5-0.8,0.6c0-0.1,1.1-0.7,0.4-0.3c-0.1,0.1-0.3,0.2-0.4,0.3c-0.2,0.2-0.6,0.3-0.8,0.4
			c0.9-0.8,1-0.3,0.6-0.3c-0.1,0-0.6,0.1-0.7,0.2c0.3-0.3,1.3-0.1,0.6-0.1c-0.6,0-0.7-0.2,0.4,0.1c-0.2-0.1-0.4-0.1-0.5-0.1
			c-0.1,0-0.2,0-0.3-0.1c-0.5-0.2-0.3-0.1,0.5,0.2c-0.1-0.1-0.4-0.2-0.4-0.2c-0.7-0.4,0.7,0.7,0.4,0.3c-0.1-0.1-0.2-0.2-0.3-0.3
			c-0.7-0.6,0.4,0.7,0.2,0.3c-0.2-0.3-0.4-0.6-0.5-0.9c-0.6-1.1,0.3,1-0.1-0.1c-0.3-0.8-0.5-1.6-0.8-2.4c-1.3-4.4-3.4-8.6-8.2-9.9
			c-2.5-0.7-5.6,0.9-6.2,3.5C1129.9,356.1,1131.3,358.8,1134,359.6L1134,359.6z"/>
	</g>
	<g>
		<path class="st18" d="M754.9,206.9c0.4-0.3,0.9-0.6,1.3-0.9c0.2-0.1,0.8-0.2,0.1-0.1c-0.8,0.2,0.2,0,0.3-0.1
			c0.2-0.1,0.4-0.1,0.6-0.1c0.6-0.2,0.2,0.2-0.4,0c0.4,0.1,1.1-0.1,1.5,0c0.2,0,0.4,0,0.6,0c0.8,0-0.3,0-0.4-0.1
			c0.3,0.2,1,0.2,1.4,0.3c1,0.2,1.9,0.5,2.9,0.7c4.5,1.1,9.5,1.6,13.5-1.3c2.5-1.7,4.2-3.9,5.3-6.7c0.8-2,1-4.2,1-6.4
			c0-1.9-0.2-3.7,0-5.6c0-0.1,0.1-0.5,0.1-0.6c0,0.1-0.2,1.3-0.1,0.4c0.1-0.4,0.2-0.8,0.3-1.2c0-0.2,0.4-1,0.1-0.2
			c-0.3,0.7,0,0.1,0.1-0.1c0.1-0.2,0.3-0.4,0.4-0.7c0.4-0.8-0.5,0.5-0.1,0.1c0.2-0.2,0.4-0.4,0.6-0.6c0.2-0.2,0.6-0.7-0.2,0.1
			c0.3-0.3,0.8-0.5,1.2-0.7c0.8-0.5-0.2,0.2-0.3,0.1c0,0,0.5-0.2,0.6-0.2c0.2-0.1,0.5-0.1,0.7-0.2c0.5-0.2-1.2,0.1-0.3,0
			c0.5,0,0.9,0,1.3,0c0.2,0,0.5,0.1,0.7,0.1c-0.1,0-1.3-0.2-0.4,0c0.9,0.2,1.8,0.4,2.7,0.6c4.7,1.2,9.2,2,13.7-0.4
			c4.7-2.5,7-7.3,7.3-12.4c0.1-1.9-0.1-3.7,0-5.6c0-0.4,0-0.8,0-1.2c0.1-1.4-0.2,0.8,0-0.3c0.1-0.4,0.2-0.9,0.3-1.3
			c0.2-0.6,0.2,0.1-0.2,0.4c0.1,0,0.4-0.7,0.4-0.8c0-0.1,0.3-0.5,0.4-0.5c-0.4,0.5-0.5,0.7-0.3,0.4c0.1-0.1,0.2-0.3,0.3-0.4
			c0.1-0.1,0.5-0.5,0.5-0.5c-0.1,0.1-0.3,0.2-0.4,0.3c0.2-0.1,0.4-0.3,0.6-0.4c0.2-0.1,0.4-0.2,0.6-0.3c0.8-0.5-1,0.2,0,0
			c0.2,0,0.4-0.1,0.6-0.2c0.1,0,0.2,0,0.3-0.1c0.5-0.1,0.4-0.1-0.4,0c0.4,0.1,1.1-0.1,1.5,0c0.2,0,0.4,0,0.6,0c1,0.1-1.2-0.2-0.1,0
			c1,0.2,2,0.4,3,0.7c5.1,1.3,10.5,2,14.9-1.4c1.1-0.8,1.9-1.6,2.3-3c0.3-1.2,0.2-2.8-0.5-3.9c-1.3-2-4.6-3.5-6.8-1.8
			c-0.4,0.3-0.9,0.6-1.3,0.9c-0.2,0.1-0.8,0.2-0.1,0.1c0.8-0.1-0.1,0-0.3,0.1c-0.2,0.1-0.4,0.1-0.6,0.1c-0.6,0.2-0.2-0.2,0.4,0
			c-0.4-0.1-1.1,0.1-1.5,0c-0.2,0-0.4,0-0.6,0c-0.8,0,0.3,0,0.4,0.1c-0.3-0.2-1-0.2-1.4-0.3c-1-0.2-1.9-0.5-2.9-0.7
			c-4.5-1.1-9.5-1.6-13.6,1.3c-2.5,1.7-4.2,3.9-5.3,6.7c-0.8,2-1,4.2-1,6.4c0,1.9,0.2,3.7,0,5.6c0,0.1-0.1,0.5-0.1,0.6
			c0-0.1,0.2-1.3,0.1-0.4c-0.1,0.4-0.2,0.8-0.3,1.2c0,0.2-0.4,1-0.1,0.2c0.3-0.7,0-0.1-0.1,0.1c-0.1,0.2-0.3,0.4-0.4,0.7
			c-0.4,0.8,0.5-0.5,0.1-0.1c-0.2,0.2-0.4,0.4-0.6,0.6c-0.2,0.2-0.6,0.7,0.2-0.1c-0.3,0.3-0.8,0.5-1.2,0.7c-0.8,0.5,0.2-0.2,0.3-0.1
			c0,0-0.5,0.2-0.6,0.2c-0.2,0.1-0.5,0.1-0.7,0.2c-0.5,0.2,1.2-0.1,0.3,0c-0.5,0-0.9,0-1.3,0c-0.2,0-0.5-0.1-0.7-0.1
			c0.1,0,1.3,0.2,0.4,0c-0.9-0.2-1.8-0.4-2.7-0.6c-4.7-1.2-9.2-2-13.7,0.4c-4.7,2.5-7,7.3-7.3,12.4c-0.1,1.9,0.1,3.7,0,5.6
			c0,0.4,0,0.8,0,1.2c-0.1,1.4,0.2-0.8,0,0.3c-0.1,0.4-0.2,0.9-0.3,1.3c-0.2,0.6-0.2-0.1,0.2-0.4c-0.1,0-0.4,0.7-0.4,0.8
			c0,0.1-0.3,0.5-0.3,0.5c0.4-0.5,0.5-0.7,0.3-0.4c-0.1,0.1-0.2,0.3-0.3,0.4c-0.1,0.1-0.5,0.5-0.5,0.5c0.1-0.1,0.3-0.2,0.4-0.3
			c-0.2,0.1-0.4,0.3-0.6,0.4c-0.2,0.1-0.4,0.2-0.6,0.3c-0.8,0.5,1-0.2,0,0c-0.2,0-0.4,0.1-0.6,0.2c-0.1,0-0.2,0-0.3,0.1
			c-0.5,0.1-0.4,0.1,0.4,0c-0.4-0.1-1.1,0.1-1.5,0c-0.2,0-0.4,0-0.6,0c-1-0.1,1.2,0.2,0.1,0c-1-0.2-2-0.4-3-0.7
			c-5-1.3-10.5-2-14.9,1.4c-1.1,0.8-1.9,1.6-2.3,3c-0.3,1.2-0.2,2.8,0.5,3.9C749.4,207.1,752.7,208.6,754.9,206.9L754.9,206.9z"/>
	</g>
	<g>
		<path class="st20" d="M304.7,188.1c0,0,0.5,0.4,0.5,0.4c-0.3,0.1-0.8-0.8-0.2-0.1c0.1,0.1,0.3,0.3,0.4,0.4
			c0.4,0.4-0.5-0.9-0.3-0.3c0.1,0.2,0.2,0.4,0.3,0.6c0.2,0.4,0,0.5-0.2-0.5c0.1,0.4,0.3,0.9,0.4,1.3c0.1,0.4,0.1,0.7,0.2,1.1
			c-0.4-1.4-0.1-0.4,0,0.1c0.1,0.9,0.1,1.7,0.2,2.6c0.3,4.8,1.5,9.3,5.8,12.2c4,2.7,8.7,2.2,13,0.4c0.9-0.4,1.8-0.8,2.7-1.2
			c0.2-0.1,0.4-0.2,0.5-0.2c0.8-0.3-0.3,0.2-0.4,0.2c0.4-0.1,0.9-0.3,1.3-0.5c0.4-0.1,0.7-0.2,1.1-0.3c1.3-0.3-1,0,0.1,0
			c0.2,0,1.5,0.1,0.6-0.1c-1-0.2,0.6,0.2,0.8,0.3c0.6,0.2-1.1-0.6-0.2-0.1c0.2,0.1,0.4,0.2,0.6,0.3c0.6,0.3-0.3,0.1-0.3-0.2
			c0,0,0.4,0.4,0.4,0.4c0.1,0.1,0.3,0.3,0.4,0.4c-0.7-0.5-0.5-0.8-0.3-0.3c0.1,0.2,0.2,0.3,0.3,0.5c0.5,0.8-0.3-1.1-0.1-0.2
			c0.1,0.3,0.2,0.7,0.3,1c0,0.2,0.3,1.7,0.2,0.7c-0.1-1,0,0.6,0.1,0.8c0,0.4,0.1,0.9,0.1,1.3c0.3,4.3,0.8,8.8,4.2,11.9
			c3.7,3.3,8.6,4,13.2,2.2c1-0.4,2-0.8,3-1.3c0.4-0.2,0.8-0.4,1.2-0.5c0.2-0.1,0.4-0.2,0.5-0.2c0.5-0.2-1.2,0.5-0.1,0.1
			c0.7-0.3,1.5-0.5,2.3-0.7c0.8-0.2-1.3,0.1,0,0c0.2,0,0.4,0,0.5,0c0.9-0.1-1.1-0.3-0.2,0c0.2,0.1,0.4,0.1,0.5,0.1
			c1,0.3-0.1,0.1-0.1-0.1c0,0,0.6,0.3,0.6,0.3c0.1,0.1,0.2,0.1,0.3,0.2c0.4,0.3,0.3,0.2-0.3-0.2c0,0.1,1.3,1.3,0.6,0.5
			c-0.6-0.6,0,0,0.1,0.2c0.1,0.2,0.4,0.9,0.1,0.1c-0.3-0.9,0.2,0.6,0.2,0.8c0.1,0.2,0.3,1.8,0.2,0.8c-0.1-0.9,0,0.5,0.1,0.8
			c0,0.5,0.1,1,0.1,1.4c0.1,2.2,0.2,4.5,1,6.6c1,2.9,2.7,5.1,5.3,6.7c2.2,1.4,5.6,0.5,6.8-1.8c1.3-2.5,0.6-5.3-1.8-6.8
			c0,0-0.5-0.4-0.5-0.4c0.3-0.1,0.8,0.8,0.2,0.1c-0.1-0.1-0.3-0.3-0.4-0.4c-0.4-0.4,0.5,0.9,0.3,0.3c-0.1-0.2-0.2-0.4-0.3-0.6
			c-0.2-0.4,0-0.5,0.2,0.5c-0.1-0.4-0.3-0.9-0.4-1.3c-0.1-0.4-0.1-0.7-0.2-1.1c0.4,1.4,0.1,0.4,0-0.1c-0.1-0.9-0.1-1.7-0.2-2.6
			c-0.3-4.8-1.5-9.3-5.8-12.2c-4-2.7-8.7-2.2-13-0.4c-0.9,0.4-1.8,0.8-2.7,1.2c-0.2,0.1-0.4,0.2-0.5,0.2c-0.8,0.3,0.3-0.2,0.4-0.2
			c-0.4,0.1-0.9,0.3-1.3,0.5c-0.4,0.1-0.7,0.2-1.1,0.3c-1.3,0.3,1,0-0.1,0c-0.2,0-1.5-0.1-0.6,0.1c1,0.2-0.6-0.2-0.8-0.3
			c-0.6-0.2,1.1,0.6,0.2,0.1c-0.2-0.1-0.4-0.2-0.6-0.3c-0.6-0.3,0.3-0.1,0.3,0.2c0,0-0.4-0.4-0.4-0.4c-0.1-0.1-0.3-0.3-0.4-0.4
			c0.7,0.5,0.5,0.8,0.3,0.3c-0.1-0.2-0.2-0.3-0.3-0.5c-0.5-0.8,0.3,1.1,0.1,0.2c-0.1-0.3-0.2-0.7-0.3-1c0-0.2-0.3-1.7-0.2-0.7
			c0.1,1,0-0.6-0.1-0.8c0-0.4-0.1-0.9-0.1-1.3c-0.3-4.3-0.8-8.8-4.2-11.9c-3.7-3.3-8.6-4-13.2-2.2c-1,0.4-2,0.8-3,1.3
			c-0.4,0.2-0.8,0.4-1.2,0.5c-0.2,0.1-0.4,0.2-0.5,0.2c-0.5,0.2,1.2-0.5,0.1-0.1c-0.7,0.3-1.5,0.5-2.3,0.7c-0.8,0.2,1.3-0.1,0,0
			c-0.2,0-0.4,0-0.5,0c-0.9,0.1,1.1,0.3,0.2,0c-0.2-0.1-0.4-0.1-0.5-0.1c-1-0.3,0.1-0.1,0.1,0.1c0,0-0.6-0.3-0.6-0.3
			c-0.1-0.1-0.2-0.1-0.3-0.2c-0.4-0.3-0.3-0.2,0.3,0.2c0-0.1-1.3-1.3-0.6-0.5c0.6,0.6,0,0-0.1-0.2c-0.1-0.2-0.4-0.9-0.1-0.1
			c0.3,0.9-0.2-0.6-0.2-0.8c-0.1-0.2-0.3-1.8-0.2-0.8c0.1,0.9,0-0.5-0.1-0.8c0-0.5-0.1-1-0.1-1.4c-0.1-2.2-0.2-4.5-1-6.6
			c-1-2.8-2.7-5.1-5.3-6.7c-2.2-1.4-5.6-0.5-6.8,1.8C301.6,183.7,302.3,186.6,304.7,188.1L304.7,188.1z"/>
	</g>
</g>
</svg>
