<?xml version="1.0" encoding="utf-8"?>
<!-- Generator: Adobe Illustrator 27.9.1, SVG Export Plug-In . SVG Version: 6.00 Build 0)  -->
<svg version="1.1" id="レイヤー_1" xmlns="http://www.w3.org/2000/svg" xmlns:xlink="http://www.w3.org/1999/xlink" x="0px"
	 y="0px" viewBox="0 0 450 300" style="enable-background:new 0 0 450 300;" xml:space="preserve">
<style type="text/css">
	.st0{enable-background:new    ;}
	.st1{fill:#00AEBB;}
	.st2{fill:none;}
</style>
<g class="st0">
	<path class="st1" d="M69.2,123c-7.6,0-14.6-1.2-21.1-3.7c-6.5-2.5-12.1-6-16.9-10.6c-4.8-4.6-8.5-9.9-11.1-16.1
		c-2.7-6.2-4-12.9-4-20.3c0-7.4,1.3-14.1,4-20.3c2.7-6.2,6.4-11.5,11.2-16.1c4.8-4.6,10.4-8.1,16.9-10.6c6.4-2.5,13.5-3.7,21.1-3.7
		c8.5,0,16.2,1.5,23,4.4c6.9,2.9,12.6,7.3,17.3,12.9L95.1,52.4c-3.4-3.8-7.1-6.7-11.2-8.6c-4.1-1.9-8.6-2.9-13.4-2.9
		c-4.6,0-8.8,0.7-12.6,2.2c-3.8,1.5-7.1,3.6-9.9,6.4c-2.8,2.8-5,6.1-6.5,9.9c-1.5,3.8-2.3,8.1-2.3,12.7c0,4.7,0.8,8.9,2.3,12.7
		c1.5,3.8,3.7,7.1,6.5,9.9c2.8,2.8,6.1,4.9,9.9,6.4c3.8,1.5,8,2.2,12.6,2.2c4.9,0,9.3-1,13.4-2.9c4.1-1.9,7.8-4.8,11.2-8.8
		l14.6,13.4c-4.7,5.7-10.4,10-17.3,13C85.5,121.5,77.7,123,69.2,123z"/>
</g>
<g class="st0">
	<path d="M121.9,121.3V56.7h17.9V75l-2.5-5.3c1.9-4.6,5-8,9.2-10.4c4.2-2.4,9.4-3.5,15.5-3.5V73c-0.8-0.1-1.5-0.1-2.2-0.2
		c-0.6,0-1.3-0.1-2-0.1c-5.1,0-9.3,1.5-12.4,4.4c-3.2,2.9-4.7,7.5-4.7,13.6v30.5H121.9z"/>
	<path d="M204.6,122.2c-7.4,0-13.8-1.4-19.4-4.3c-5.6-2.9-9.9-6.8-12.9-11.8c-3-5-4.6-10.7-4.6-17.1c0-6.5,1.5-12.2,4.5-17.2
		c3-5,7.1-8.9,12.3-11.8c5.2-2.8,11.1-4.3,17.6-4.3c6.3,0,12,1.3,17.1,4c5.1,2.7,9.1,6.5,12.1,11.5c3,5,4.4,11,4.4,17.9
		c0,0.7,0,1.5-0.1,2.5c-0.1,0.9-0.2,1.8-0.2,2.6H183V83.4h42.6l-7.2,3.2c0-3.4-0.7-6.3-2-8.8c-1.4-2.5-3.2-4.4-5.6-5.8
		c-2.4-1.4-5.2-2.1-8.4-2.1c-3.2,0-6,0.7-8.5,2.1c-2.4,1.4-4.3,3.4-5.7,5.9c-1.4,2.5-2,5.5-2,8.9v2.9c0,3.5,0.8,6.6,2.3,9.3
		c1.6,2.7,3.8,4.7,6.6,6.1c2.8,1.4,6.2,2.1,10,2.1c3.4,0,6.5-0.5,9.1-1.6c2.6-1,5-2.6,7.1-4.7l10,10.8c-3,3.4-6.7,5.9-11.2,7.7
		C215.6,121.3,210.4,122.2,204.6,122.2z"/>
	<path d="M266.4,122.2c-5,0-9.4-0.9-13-2.6s-6.4-4.1-8.3-7c-1.9-3-2.9-6.3-2.9-10c0-3.8,0.9-7.2,2.8-10.1c1.9-2.9,4.9-5.1,8.9-6.8
		c4.1-1.6,9.4-2.5,16-2.5h17.2v10.9H272c-4.4,0-7.4,0.7-9.1,2.2c-1.6,1.4-2.5,3.2-2.5,5.4c0,2.4,0.9,4.3,2.8,5.7
		c1.9,1.4,4.5,2.1,7.7,2.1c3.1,0,5.9-0.7,8.4-2.2c2.5-1.5,4.3-3.7,5.4-6.5l2.9,8.6c-1.4,4.2-3.8,7.3-7.4,9.5
		C276.7,121.2,272.1,122.2,266.4,122.2z M286.1,121.3v-12.6l-1.2-2.8V83.4c0-4-1.2-7.1-3.7-9.4c-2.4-2.2-6.2-3.4-11.2-3.4
		c-3.4,0-6.8,0.5-10.1,1.6c-3.3,1.1-6.1,2.5-8.5,4.4l-6.7-13.1c3.5-2.5,7.8-4.4,12.7-5.8c5-1.4,10-2,15.1-2c9.8,0,17.5,2.3,22.9,7
		c5.4,4.6,8.2,11.9,8.2,21.7v36.8H286.1z"/>
	<path d="M312.8,72.6V58.2h44.8v14.4H312.8z M346.9,122.2c-7.6,0-13.5-1.9-17.8-5.8c-4.2-3.9-6.4-9.7-6.4-17.3V42.4h18.7v56.4
		c0,2.7,0.7,4.8,2.2,6.3c1.4,1.5,3.4,2.2,5.9,2.2c3,0,5.5-0.8,7.6-2.4l5,13.2c-1.9,1.4-4.2,2.4-6.9,3.1
		C352.6,121.9,349.8,122.2,346.9,122.2z"/>
	<path d="M402.7,122.2c-7.4,0-13.8-1.4-19.4-4.3c-5.6-2.9-9.9-6.8-12.9-11.8c-3-5-4.6-10.7-4.6-17.1c0-6.5,1.5-12.2,4.5-17.2
		c3-5,7.1-8.9,12.3-11.8c5.2-2.8,11.1-4.3,17.6-4.3c6.3,0,12,1.3,17.1,4c5.1,2.7,9.1,6.5,12.1,11.5c3,5,4.4,11,4.4,17.9
		c0,0.7,0,1.5-0.1,2.5c-0.1,0.9-0.2,1.8-0.2,2.6h-52.4V83.4h42.6l-7.2,3.2c0-3.4-0.7-6.3-2-8.8c-1.4-2.5-3.2-4.4-5.6-5.8
		c-2.4-1.4-5.2-2.1-8.4-2.1c-3.2,0-6,0.7-8.5,2.1c-2.4,1.4-4.3,3.4-5.7,5.9c-1.4,2.5-2,5.5-2,8.9v2.9c0,3.5,0.8,6.6,2.3,9.3
		c1.6,2.7,3.8,4.7,6.6,6.1c2.8,1.4,6.2,2.1,10,2.1c3.4,0,6.5-0.5,9.1-1.6c2.6-1,5-2.6,7.1-4.7l10,10.8c-3,3.4-6.7,5.9-11.2,7.7
		C413.7,121.3,408.5,122.2,402.7,122.2z"/>
</g>
<g class="st0">
	<path d="M42.8,194.8c-3.9,0-7.4-0.8-10.3-2.3c-3-1.5-5.3-3.6-6.9-6.3c-1.6-2.7-2.4-5.7-2.4-9.1c0-3.5,0.8-6.5,2.4-9.2
		c1.6-2.7,3.8-4.8,6.6-6.3c2.8-1.5,5.9-2.3,9.4-2.3c3.4,0,6.4,0.7,9.1,2.1c2.7,1.4,4.9,3.5,6.4,6.1c1.6,2.7,2.4,5.9,2.4,9.6
		c0,0.4,0,0.8-0.1,1.3c0,0.5-0.1,1-0.1,1.4h-28v-5.8H54l-3.8,1.7c0-1.8-0.4-3.3-1.1-4.7c-0.7-1.3-1.7-2.4-3-3.1
		c-1.3-0.7-2.8-1.1-4.5-1.1c-1.7,0-3.2,0.4-4.5,1.1c-1.3,0.7-2.3,1.8-3,3.1c-0.7,1.3-1.1,2.9-1.1,4.8v1.5c0,1.9,0.4,3.5,1.2,5
		c0.8,1.4,2,2.5,3.5,3.3c1.5,0.7,3.3,1.1,5.3,1.1c1.8,0,3.4-0.3,4.8-0.8c1.4-0.6,2.7-1.4,3.8-2.5l5.3,5.8c-1.6,1.8-3.6,3.2-6,4.1
		C48.7,194.3,46,194.8,42.8,194.8z"/>
	<path d="M60.8,194.3l15.4-20.2l-0.2,5.5l-14.8-19.7h11.2l9.3,12.9l-4.2,0.1l9.7-13h10.6L83,179.4V174l15.4,20.3H87.1l-9.8-13.7
		l4.2,0.6l-9.7,13.1H60.8z"/>
	<path d="M118.8,194.8c-3.7,0-7-0.8-9.9-2.3c-2.9-1.5-5.2-3.6-6.8-6.3c-1.6-2.7-2.5-5.7-2.5-9.2c0-3.5,0.8-6.5,2.5-9.2
		c1.6-2.7,3.9-4.8,6.8-6.3c2.9-1.5,6.2-2.3,9.9-2.3c3.6,0,6.8,0.8,9.5,2.3c2.7,1.5,4.7,3.7,6,6.5l-7.7,4.2c-0.9-1.6-2-2.8-3.4-3.6
		c-1.3-0.8-2.8-1.2-4.4-1.2c-1.7,0-3.2,0.4-4.6,1.2c-1.4,0.8-2.4,1.9-3.2,3.3c-0.8,1.4-1.2,3.1-1.2,5.1c0,2,0.4,3.7,1.2,5.1
		c0.8,1.4,1.9,2.5,3.2,3.3c1.4,0.8,2.9,1.2,4.6,1.2c1.6,0,3-0.4,4.4-1.1c1.3-0.7,2.5-2,3.4-3.6l7.7,4.2c-1.3,2.8-3.3,4.9-6,6.4
		S122.4,194.8,118.8,194.8z"/>
	<path d="M144.7,155c-1.8,0-3.3-0.5-4.5-1.6c-1.2-1.1-1.7-2.4-1.7-4c0-1.6,0.6-2.9,1.7-4c1.2-1.1,2.6-1.6,4.5-1.6
		c1.8,0,3.3,0.5,4.5,1.5c1.2,1,1.7,2.3,1.7,3.9c0,1.7-0.6,3-1.7,4.1C148.1,154.5,146.6,155,144.7,155z M139.7,194.3v-34.4h10v34.4
		H139.7z"/>
	<path d="M154.9,168.3v-7.7h23.9v7.7H154.9z M173.1,194.8c-4.1,0-7.2-1-9.5-3.1c-2.3-2.1-3.4-5.2-3.4-9.2v-30.2h10v30.1
		c0,1.5,0.4,2.6,1.2,3.4c0.8,0.8,1.8,1.2,3.1,1.2c1.6,0,2.9-0.4,4-1.3l2.7,7c-1,0.7-2.3,1.3-3.7,1.6
		C176.1,194.6,174.6,194.8,173.1,194.8z"/>
	<path d="M202.8,194.8c-3.9,0-7.4-0.8-10.3-2.3c-3-1.5-5.3-3.6-6.9-6.3c-1.6-2.7-2.4-5.7-2.4-9.1c0-3.5,0.8-6.5,2.4-9.2
		c1.6-2.7,3.8-4.8,6.6-6.3c2.8-1.5,5.9-2.3,9.4-2.3c3.4,0,6.4,0.7,9.1,2.1c2.7,1.4,4.9,3.5,6.4,6.1c1.6,2.7,2.4,5.9,2.4,9.6
		c0,0.4,0,0.8-0.1,1.3c0,0.5-0.1,1-0.1,1.4h-28v-5.8H214l-3.8,1.7c0-1.8-0.4-3.3-1.1-4.7c-0.7-1.3-1.7-2.4-3-3.1
		c-1.3-0.7-2.8-1.1-4.5-1.1c-1.7,0-3.2,0.4-4.5,1.1c-1.3,0.7-2.3,1.8-3,3.1c-0.7,1.3-1.1,2.9-1.1,4.8v1.5c0,1.9,0.4,3.5,1.2,5
		c0.8,1.4,2,2.5,3.5,3.3c1.5,0.7,3.3,1.1,5.3,1.1c1.8,0,3.4-0.3,4.8-0.8c1.4-0.6,2.7-1.4,3.8-2.5l5.3,5.8c-1.6,1.8-3.6,3.2-6,4.1
		C208.7,194.3,205.9,194.8,202.8,194.8z"/>
	<path d="M270.2,159.3c2.7,0,5.2,0.5,7.3,1.6c2.1,1.1,3.8,2.8,5,5c1.2,2.2,1.8,5.1,1.8,8.6v19.7h-10v-18.2c0-2.8-0.6-4.8-1.7-6.1
		c-1.2-1.3-2.8-2-4.9-2c-1.5,0-2.8,0.3-3.9,1s-2,1.7-2.7,3c-0.6,1.3-1,3-1,5.1v17.3h-10v-18.2c0-2.8-0.6-4.8-1.7-6.1
		c-1.1-1.3-2.7-2-4.8-2c-1.5,0-2.8,0.3-3.9,1c-1.2,0.7-2,1.7-2.7,3c-0.6,1.3-1,3-1,5.1v17.3h-10v-34.4h9.5v9.4l-1.8-2.8
		c1.2-2.3,2.9-4.1,5.1-5.3c2.2-1.2,4.7-1.8,7.5-1.8c3.2,0,5.9,0.8,8.3,2.4c2.4,1.6,3.9,4,4.7,7.3l-3.5-1c1.2-2.7,3-4.8,5.5-6.4
		C264,160.1,266.9,159.3,270.2,159.3z"/>
	<path d="M310.6,194.8c-3.9,0-7.4-0.8-10.3-2.3c-3-1.5-5.3-3.6-6.9-6.3c-1.6-2.7-2.4-5.7-2.4-9.1c0-3.5,0.8-6.5,2.4-9.2
		c1.6-2.7,3.8-4.8,6.6-6.3c2.8-1.5,5.9-2.3,9.4-2.3c3.4,0,6.4,0.7,9.1,2.1c2.7,1.4,4.9,3.5,6.4,6.1c1.6,2.7,2.4,5.9,2.4,9.6
		c0,0.4,0,0.8-0.1,1.3c0,0.5-0.1,1-0.1,1.4h-28v-5.8h22.7l-3.8,1.7c0-1.8-0.4-3.3-1.1-4.7c-0.7-1.3-1.7-2.4-3-3.1
		c-1.3-0.7-2.8-1.1-4.5-1.1c-1.7,0-3.2,0.4-4.5,1.1c-1.3,0.7-2.3,1.8-3,3.1c-0.7,1.3-1.1,2.9-1.1,4.8v1.5c0,1.9,0.4,3.5,1.2,5
		c0.8,1.4,2,2.5,3.5,3.3c1.5,0.7,3.3,1.1,5.3,1.1c1.8,0,3.4-0.3,4.8-0.8c1.4-0.6,2.7-1.4,3.8-2.5l5.3,5.8c-1.6,1.8-3.6,3.2-6,4.1
		C316.5,194.3,313.7,194.8,310.6,194.8z"/>
	<path d="M354.8,159.3c2.7,0,5.2,0.5,7.3,1.6c2.2,1.1,3.9,2.8,5.1,5c1.2,2.2,1.9,5.1,1.9,8.6v19.7h-10v-18.2c0-2.8-0.6-4.8-1.8-6.1
		c-1.2-1.3-2.9-2-5.2-2c-1.6,0-3,0.3-4.3,1c-1.3,0.7-2.2,1.7-2.9,3c-0.7,1.4-1.1,3.1-1.1,5.2v17h-10v-34.4h9.5v9.5l-1.8-2.9
		c1.2-2.3,3-4.1,5.3-5.3C349.3,159.9,351.9,159.3,354.8,159.3z"/>
	<path d="M374,168.3v-7.7h23.9v7.7H374z M392.2,194.8c-4.1,0-7.2-1-9.5-3.1s-3.4-5.2-3.4-9.2v-30.2h10v30.1c0,1.5,0.4,2.6,1.2,3.4
		c0.8,0.8,1.8,1.2,3.1,1.2c1.6,0,2.9-0.4,4-1.3l2.7,7c-1,0.7-2.3,1.3-3.7,1.6C395.2,194.6,393.7,194.8,392.2,194.8z"/>
</g>
<g class="st0">
	<path d="M26.2,238.9v-7.8h24.2v7.8H26.2z M44.6,265.8c-4.1,0-7.3-1-9.6-3.2c-2.3-2.1-3.4-5.2-3.4-9.4v-30.7h10.1v30.5
		c0,1.5,0.4,2.6,1.2,3.4c0.8,0.8,1.8,1.2,3.2,1.2c1.6,0,3-0.4,4.1-1.3l2.7,7.1c-1,0.7-2.3,1.3-3.7,1.7
		C47.7,265.6,46.2,265.8,44.6,265.8z"/>
	<path d="M74.1,265.8c-3.7,0-7-0.8-9.9-2.3c-2.9-1.6-5.2-3.7-6.8-6.4c-1.7-2.7-2.5-5.8-2.5-9.3c0-3.5,0.8-6.6,2.5-9.3
		c1.7-2.7,3.9-4.8,6.8-6.4c2.9-1.5,6.2-2.3,9.9-2.3c3.7,0,7,0.8,9.9,2.3c2.9,1.5,5.2,3.7,6.8,6.3c1.6,2.7,2.5,5.8,2.5,9.4
		c0,3.5-0.8,6.6-2.5,9.3c-1.6,2.7-3.9,4.8-6.8,6.4C81.1,265,77.8,265.8,74.1,265.8z M74.1,257.5c1.7,0,3.2-0.4,4.6-1.2
		c1.3-0.8,2.4-1.9,3.2-3.3c0.8-1.5,1.2-3.2,1.2-5.2c0-2-0.4-3.8-1.2-5.2c-0.8-1.4-1.8-2.5-3.2-3.3c-1.3-0.8-2.9-1.2-4.6-1.2
		s-3.2,0.4-4.5,1.2c-1.3,0.8-2.4,1.9-3.2,3.3c-0.8,1.4-1.2,3.2-1.2,5.2c0,2,0.4,3.7,1.2,5.2c0.8,1.5,1.9,2.6,3.2,3.3
		C70.9,257.1,72.4,257.5,74.1,257.5z"/>
	<path d="M115,263.6c-3.2,0-6.2-0.7-8.8-2.1c-2.6-1.4-4.7-3.4-6.3-5.9c-1.6-2.5-2.4-5.5-2.4-8.9c0-3.4,0.8-6.4,2.4-8.9
		c1.6-2.5,3.7-4.5,6.3-5.9c2.6-1.4,5.6-2.1,8.8-2.1c2.9,0,5.5,0.6,7.8,1.8c2.3,1.2,4,3,5.3,5.5c1.3,2.5,1.9,5.7,1.9,9.6
		c0,3.9-0.6,7-1.9,9.5c-1.3,2.5-3,4.3-5.3,5.6C120.5,263,117.9,263.6,115,263.6z M116.5,278.4c-3.3,0-6.5-0.4-9.5-1.2
		c-3.1-0.8-5.6-2-7.6-3.6l4-7.3c1.5,1.2,3.3,2.2,5.6,2.9c2.3,0.7,4.5,1.1,6.7,1.1c3.6,0,6.2-0.8,7.8-2.4s2.4-4,2.4-7.1v-5.3l0.6-8.8
		l-0.1-8.8v-7.5h9.6v29.1c0,6.5-1.7,11.3-5.1,14.4S122.8,278.4,116.5,278.4z M117,255.3c1.8,0,3.4-0.4,4.7-1.1
		c1.4-0.7,2.5-1.7,3.2-3c0.8-1.3,1.2-2.8,1.2-4.5c0-1.7-0.4-3.2-1.2-4.5c-0.8-1.3-1.9-2.3-3.2-3c-1.4-0.7-3-1.1-4.7-1.1
		c-1.8,0-3.4,0.4-4.7,1.1c-1.4,0.7-2.5,1.7-3.3,3c-0.8,1.3-1.2,2.8-1.2,4.5c0,1.7,0.4,3.2,1.2,4.5c0.8,1.3,1.9,2.3,3.3,3
		C113.6,254.9,115.2,255.3,117,255.3z"/>
	<path d="M162.9,265.8c-4,0-7.5-0.8-10.5-2.3c-3-1.6-5.3-3.7-7-6.4c-1.6-2.7-2.5-5.8-2.5-9.3c0-3.5,0.8-6.6,2.4-9.3
		c1.6-2.7,3.8-4.8,6.7-6.4c2.8-1.5,6-2.3,9.6-2.3c3.4,0,6.5,0.7,9.3,2.2c2.8,1.5,4.9,3.5,6.5,6.2c1.6,2.7,2.4,5.9,2.4,9.7
		c0,0.4,0,0.8-0.1,1.3c0,0.5-0.1,1-0.1,1.4h-28.4v-5.9h23.1l-3.9,1.8c0-1.8-0.4-3.4-1.1-4.7c-0.7-1.3-1.8-2.4-3.1-3.2
		c-1.3-0.8-2.8-1.1-4.6-1.1c-1.7,0-3.3,0.4-4.6,1.1c-1.3,0.8-2.4,1.8-3.1,3.2c-0.7,1.4-1.1,3-1.1,4.8v1.6c0,1.9,0.4,3.6,1.3,5
		c0.8,1.5,2,2.6,3.6,3.3c1.5,0.8,3.3,1.1,5.4,1.1c1.9,0,3.5-0.3,4.9-0.8c1.4-0.6,2.7-1.4,3.9-2.5l5.4,5.9c-1.6,1.8-3.6,3.2-6,4.2
		C168.9,265.3,166.1,265.8,162.9,265.8z"/>
	<path d="M182.4,238.9v-7.8h24.2v7.8H182.4z M200.9,265.8c-4.1,0-7.3-1-9.6-3.2c-2.3-2.1-3.4-5.2-3.4-9.4v-30.7H198v30.5
		c0,1.5,0.4,2.6,1.2,3.4c0.8,0.8,1.8,1.2,3.2,1.2c1.6,0,3-0.4,4.1-1.3l2.7,7.1c-1,0.7-2.3,1.3-3.7,1.7
		C203.9,265.6,202.4,265.8,200.9,265.8z"/>
	<path d="M236.1,229.8c2.8,0,5.3,0.6,7.4,1.7c2.2,1.1,3.9,2.8,5.2,5.1c1.3,2.3,1.9,5.2,1.9,8.7v20h-10.1v-18.5
		c0-2.8-0.6-4.9-1.9-6.2c-1.2-1.3-3-2-5.2-2c-1.6,0-3,0.3-4.3,1c-1.3,0.7-2.3,1.7-3,3.1c-0.7,1.4-1.1,3.2-1.1,5.3v17.3h-10.1V217
		H225V240l-2.3-2.9c1.3-2.3,3.1-4.1,5.4-5.4C230.5,230.4,233.1,229.8,236.1,229.8z"/>
	<path d="M277.4,265.8c-4,0-7.5-0.8-10.5-2.3c-3-1.6-5.3-3.7-7-6.4c-1.6-2.7-2.5-5.8-2.5-9.3c0-3.5,0.8-6.6,2.4-9.3
		c1.6-2.7,3.8-4.8,6.7-6.4c2.8-1.5,6-2.3,9.6-2.3c3.4,0,6.5,0.7,9.3,2.2c2.8,1.5,4.9,3.5,6.5,6.2s2.4,5.9,2.4,9.7
		c0,0.4,0,0.8-0.1,1.3c0,0.5-0.1,1-0.1,1.4h-28.4v-5.9h23.1l-3.9,1.8c0-1.8-0.4-3.4-1.1-4.7c-0.7-1.3-1.8-2.4-3.1-3.2
		c-1.3-0.8-2.8-1.1-4.6-1.1c-1.7,0-3.3,0.4-4.6,1.1c-1.3,0.8-2.4,1.8-3.1,3.2c-0.7,1.4-1.1,3-1.1,4.8v1.6c0,1.9,0.4,3.6,1.3,5
		c0.8,1.5,2,2.6,3.6,3.3c1.5,0.8,3.3,1.1,5.4,1.1c1.9,0,3.5-0.3,4.9-0.8c1.4-0.6,2.7-1.4,3.9-2.5l5.4,5.9c-1.6,1.8-3.6,3.2-6,4.2
		C283.3,265.3,280.5,265.8,277.4,265.8z"/>
	<path d="M301,265.3v-35h9.7v9.9l-1.4-2.9c1-2.5,2.7-4.3,5-5.6c2.3-1.3,5.1-1.9,8.4-1.9v9.4c-0.4,0-0.8-0.1-1.2-0.1
		c-0.3,0-0.7,0-1.1,0c-2.8,0-5,0.8-6.7,2.4c-1.7,1.6-2.6,4-2.6,7.4v16.5H301z"/>
	<path d="M332.2,265.8c-1.7,0-3.2-0.6-4.5-1.8c-1.2-1.2-1.9-2.7-1.9-4.6s0.6-3.4,1.9-4.5c1.2-1.1,2.7-1.7,4.5-1.7
		c1.8,0,3.3,0.6,4.5,1.7s1.8,2.7,1.8,4.5s-0.6,3.4-1.8,4.6C335.5,265.2,334,265.8,332.2,265.8z"/>
</g>
<rect class="st2" width="450" height="300"/>
</svg>
