<?xml version="1.0" encoding="utf-8"?>
<!-- Generator: Adobe Illustrator 27.9.1, SVG Export Plug-In . SVG Version: 6.00 Build 0)  -->
<svg version="1.1" id="レイヤー_1" xmlns="http://www.w3.org/2000/svg" xmlns:xlink="http://www.w3.org/1999/xlink" x="0px"
	 y="0px" viewBox="0 0 390 70" style="enable-background:new 0 0 390 70;" xml:space="preserve">
<style type="text/css">
	.st0{fill:#00AEBB;}
	.st1{fill:#F4F4F4;}
	.st2{fill:#BEBEBE;}
	.st3{fill:#BFBFBF;}
	.st4{clip-path:url(#SVGID_00000129198572686736726510000003100110311501648041_);}
	.st5{fill:#FFFFFF;}
</style>
<rect class="st0" width="390" height="70"/>
<g>
	<g>
		<g>
			<g>
				<polygon class="st1" points="106.5,17.9 101.5,22.9 101.5,52 126.5,52 126.5,17.9 				"/>
				<g>
					<g>
						<g>
							<polygon class="st2" points="106.5,22.9 106.5,17.9 101.5,22.9 							"/>
						</g>
					</g>
				</g>
				<circle class="st3" cx="109.4" cy="30.1" r="4.6"/>
				<rect x="104.9" y="45.6" class="st0" width="18.3" height="1.4"/>
				<rect x="104.9" y="41.6" class="st0" width="18.3" height="1.4"/>
				<rect x="104.9" y="37.6" class="st0" width="18.3" height="1.4"/>
				<rect x="116.8" y="28.1" class="st0" width="6.3" height="1.4"/>
				<rect x="116.8" y="31.3" class="st0" width="6.3" height="1.4"/>
			</g>
		</g>
	</g>
	<g>
		<g>
			<g>
				<circle id="SVGID_00000039847938836570373920000016226573810161093773_" class="st2" cx="109.4" cy="30.1" r="4.6"/>
			</g>
			<g>
				<g>
					<g>
						<defs>
							<circle id="SVGID_1_" cx="109.4" cy="30.1" r="4.6"/>
						</defs>
						<clipPath id="SVGID_00000118393850780010066140000001073647583580159406_">
							<use xlink:href="#SVGID_1_"  style="overflow:visible;"/>
						</clipPath>
						<g style="clip-path:url(#SVGID_00000118393850780010066140000001073647583580159406_);">
							<g>
								<circle class="st5" cx="109.4" cy="29.5" r="1.7"/>
							</g>
							<path class="st5" d="M106.6,34.7c0-1.7,0.5-3.1,2.3-3.1h1.2c1.8,0,2.3,1.3,2.3,3.1"/>
						</g>
					</g>
				</g>
			</g>
		</g>
	</g>
</g>
<g>
	<g>
		<path class="st5" d="M153.8,35.8c-0.7,0.2-1.5,0.5-2.3,0.7v6.1c0,1-0.2,1.6-0.8,1.9c-0.6,0.3-1.5,0.4-2.9,0.4
			c0-0.5-0.3-1.4-0.6-1.9c0.9,0,1.7,0,1.9,0c0.3,0,0.4-0.1,0.4-0.4V37c-0.9,0.3-1.7,0.5-2.4,0.7l-0.5-2c0.8-0.2,1.8-0.5,2.9-0.8
			v-4.2h-2.6V29h2.6v-4.2h1.9V29h2.2v1.9h-2.2v3.6l2-0.6L153.8,35.8z M162.5,37.3c1.2,2,3.1,3.8,5,4.8c-0.4,0.4-1,1.1-1.3,1.5
			c-1.7-1.1-3.5-2.9-4.8-5v6.1h-1.9v-6.1c-1.4,2.1-3.3,4-5.3,5.1c-0.3-0.5-0.9-1.2-1.4-1.6c2.1-1,4.2-2.9,5.5-4.9h-4.2v-1.8h5.4V33
			h1.9v2.4h5.5v1.8h-4.4V37.3z M166.4,26.6c-3.2,0.9-7.9,1.4-11.9,1.6c-0.1-0.5-0.3-1.2-0.5-1.7c3.9-0.2,8.4-0.8,11-1.6L166.4,26.6z
			 M155.7,33.5c-0.2-1.1-0.8-2.9-1.5-4.2l1.6-0.5c0.7,1.3,1.4,3,1.6,4.1L155.7,33.5z M159.6,32.8c0-1-0.4-2.8-0.9-4.1l1.7-0.3
			c0.5,1.3,1,2.9,1.1,4L159.6,32.8z M162.4,33.4c0.9-1.4,2-3.7,2.7-5.3l1.9,0.7c-0.9,1.8-2.1,4-3,5.3L162.4,33.4z"/>
		<path class="st5" d="M189.4,42.4c0,1.2-0.3,1.8-1.1,2.1s-2.1,0.4-4.1,0.4c-0.1-0.6-0.4-1.5-0.7-2c1.4,0.1,2.9,0,3.3,0
			c0.4,0,0.5-0.1,0.5-0.5v-3.9H182v6.3h-2v-6.3h-5.1c-0.4,2.4-1.1,4.9-2.8,6.7c-0.3-0.4-1.1-1.1-1.6-1.3c2.4-2.7,2.6-6.6,2.6-9.7
			v-7.8h16.2v16H189.4z M180,36.5v-3.3h-4.8v0.9c0,0.7,0,1.6-0.1,2.4C175.1,36.5,180,36.5,180,36.5z M175.2,28.2v3.1h4.8v-3.1H175.2
			z M187.4,28.2H182v3.1h5.3L187.4,28.2L187.4,28.2z M187.4,36.5v-3.3H182v3.3H187.4z"/>
		<path class="st5" d="M194.2,34.7c0.5-1.5,0.8-3.9,0.9-5.7l1.5,0.2c-0.1,1.7-0.4,4.3-0.9,6L194.2,34.7z M200,31.6
			c-0.2-0.8-0.7-2.1-1.1-3.1v16.4H197V24.8h1.9v3.6l1.3-0.5c0.4,1,1,2.3,1.2,3.1L200,31.6z M214.6,31.8v1.5h-14.3v-1.5h6v-1.3h-4.8
			v-1.4h4.8V28H201v-1.5h5.4v-1.6h2v1.6h5.6V28h-5.6v1.1h5v1.4h-5v1.3H214.6z M213,42.8c0,0.9-0.2,1.5-0.9,1.7
			c-0.7,0.3-1.7,0.3-3.2,0.3c-0.1-0.5-0.4-1.3-0.6-1.8c1,0.1,2.1,0,2.4,0c0.3,0,0.4-0.1,0.4-0.4v-1.2h-7.3v3.3h-1.9V34.4H213V42.8z
			 M203.8,35.9v1.4h7.3v-1.4H203.8z M211.1,40.1v-1.4h-7.3v1.4H211.1z"/>
		<path class="st5" d="M224.2,30.5h3.9v1.7h-2l0.9,0.2c-0.4,0.9-0.8,1.9-1.1,2.6h2v1.8h-3.6v2.1h3.3v1.7h-3.3v4.2h-1.9v-4.2h-3.5
			v-1.7h3.5v-2.1h-3.7V35h1.9c-0.1-0.7-0.4-1.8-0.8-2.6l0.9-0.2h-2.4v-1.7h4v-1.9h-3.2v-1.7h3.2v-2.1h1.9v2.1h3v1.7h-3L224.2,30.5
			L224.2,30.5z M224.3,34.9c0.3-0.7,0.7-1.8,0.9-2.6h-3.8c0.4,0.9,0.8,1.9,0.9,2.6l-0.7,0.2h3.5L224.3,34.9z M237.9,33.5
			c-0.4,2.6-1.3,5.1-2.5,7.2c0.9,1.1,2,2,3.3,2.6c-0.4,0.4-1.1,1.1-1.4,1.6c-1.1-0.7-2.1-1.5-3-2.6c-0.8,1-1.7,1.9-2.7,2.6
			c-0.3-0.4-0.7-0.9-1.1-1.2V45h-1.8V25.7h8.8v4.2c0,0.9-0.2,1.5-1,1.8c-0.7,0.3-1.8,0.3-3.5,0.3c-0.1-0.5-0.4-1.3-0.6-1.8
			c1.3,0,2.4,0,2.8,0s0.4-0.1,0.4-0.3v-2.3h-5v5.6h5.8l0.3-0.1L237.9,33.5z M230.5,43.4c1-0.7,1.9-1.6,2.6-2.6
			c-1.1-1.7-2-3.8-2.6-5.9V43.4z M232.2,34.8c0.5,1.5,1.1,2.9,2,4.2c0.7-1.3,1.2-2.8,1.6-4.2H232.2z"/>
	</g>
	<g>
		<g>
			<path class="st5" d="M254,38.7V31h2.9c0.7,0,1.2,0.1,1.7,0.3c0.5,0.2,0.8,0.5,1.1,0.9s0.4,0.9,0.4,1.4s-0.1,1-0.4,1.4
				s-0.6,0.7-1.1,0.9s-1,0.3-1.7,0.3h-2.4l0.4-0.4v2.8L254,38.7L254,38.7z M254.8,36l-0.4-0.4h2.4c0.8,0,1.4-0.2,1.8-0.5
				s0.6-0.8,0.6-1.4c0-0.6-0.2-1.1-0.6-1.4c-0.4-0.3-1-0.5-1.8-0.5h-2.4l0.4-0.4L254.8,36L254.8,36z M259.3,38.7l-2-2.8h0.9l2,2.8
				H259.3z"/>
			<path class="st5" d="M264.2,38.8c-0.6,0-1.1-0.1-1.6-0.4c-0.5-0.3-0.8-0.6-1.1-1c-0.3-0.4-0.4-1-0.4-1.5c0-0.6,0.1-1.1,0.4-1.5
				c0.2-0.4,0.6-0.8,1-1c0.4-0.3,0.9-0.4,1.4-0.4s1,0.1,1.4,0.4c0.4,0.2,0.8,0.6,1,1s0.4,1,0.4,1.5V36v0.1h-5v-0.6h4.6l-0.3,0.2
				c0-0.4-0.1-0.8-0.3-1.1s-0.4-0.6-0.7-0.8c-0.3-0.2-0.7-0.3-1.1-0.3s-0.8,0.1-1.1,0.3s-0.6,0.4-0.7,0.8c-0.2,0.3-0.3,0.7-0.3,1.1
				v0.1c0,0.4,0.1,0.8,0.3,1.2c0.2,0.3,0.5,0.6,0.8,0.8s0.7,0.3,1.2,0.3c0.4,0,0.7-0.1,1-0.2c0.3-0.1,0.6-0.3,0.8-0.6l0.4,0.5
				c-0.3,0.3-0.6,0.5-1,0.7C265.1,38.7,264.7,38.8,264.2,38.8z"/>
			<path class="st5" d="M270.8,38.8c-0.6,0-1.1-0.1-1.5-0.4s-0.8-0.6-1.1-1c-0.3-0.4-0.4-1-0.4-1.5c0-0.6,0.1-1.1,0.4-1.5
				s0.6-0.8,1.1-1s1-0.4,1.5-0.4s0.9,0.1,1.3,0.3s0.7,0.5,0.9,0.9l-0.6,0.4c-0.2-0.3-0.4-0.5-0.7-0.6c-0.3-0.1-0.6-0.2-1-0.2
				s-0.8,0.1-1.1,0.3c-0.3,0.2-0.6,0.4-0.8,0.8c-0.2,0.3-0.3,0.7-0.3,1.2s0.1,0.9,0.3,1.2c0.2,0.3,0.5,0.6,0.8,0.8s0.7,0.3,1.1,0.3
				c0.3,0,0.7-0.1,1-0.2c0.3-0.1,0.5-0.4,0.7-0.6L273,38c-0.2,0.4-0.5,0.7-0.9,0.9C271.8,38.7,271.3,38.8,270.8,38.8z"/>
			<path class="st5" d="M274.6,38.7v-5.8h0.7v1.6l-0.1-0.3c0.2-0.4,0.4-0.8,0.8-1s0.9-0.3,1.4-0.3v0.8h-0.1h-0.1
				c-0.6,0-1.1,0.2-1.4,0.6c-0.3,0.4-0.5,0.9-0.5,1.6v2.9L274.6,38.7L274.6,38.7z"/>
			<path class="st5" d="M281.4,38.8c-0.5,0-0.9-0.1-1.3-0.3s-0.7-0.5-0.9-0.8c-0.2-0.4-0.3-0.8-0.3-1.4v-3.4h0.8v3.3
				c0,0.6,0.2,1.1,0.5,1.4c0.3,0.3,0.7,0.5,1.3,0.5c0.4,0,0.8-0.1,1-0.2s0.5-0.4,0.7-0.7s0.2-0.7,0.2-1.1v-3h0.8v5.8h-0.7v-1.6
				l0.1,0.3c-0.2,0.4-0.5,0.8-0.9,1C282.4,38.6,281.9,38.8,281.4,38.8z"/>
			<path class="st5" d="M286.8,31.7c-0.2,0-0.3-0.1-0.4-0.2s-0.2-0.2-0.2-0.4c0-0.2,0.1-0.3,0.2-0.4s0.2-0.2,0.4-0.2
				s0.3,0.1,0.4,0.2s0.2,0.2,0.2,0.4c0,0.2-0.1,0.3-0.2,0.4C287.1,31.6,287,31.7,286.8,31.7z M286.4,38.7v-5.8h0.8v5.8H286.4z"/>
			<path class="st5" d="M288.5,33.6V33h3.6v0.6H288.5z M291.2,38.8c-0.5,0-1-0.1-1.3-0.4s-0.4-0.7-0.4-1.2v-5.4h0.8V37
				c0,0.3,0.1,0.6,0.3,0.8c0.2,0.2,0.4,0.3,0.7,0.3c0.3,0,0.6-0.1,0.9-0.3l0.3,0.6c-0.2,0.1-0.3,0.2-0.6,0.3
				C291.7,38.7,291.4,38.8,291.2,38.8z"/>
		</g>
	</g>
</g>
</svg>
